<REAPER_PROJECT 0.1 "5.77/OSX64" 1523383382
  RIPPLE 0
  GROUPOVERRIDE 0 0 0
  AUTOXFADE 1
  ENVATTACH 1
  POOLEDENVATTACH 0
  MIXERUIFLAGS 11 48
  PEAKGAIN 1
  FEEDBACK 0
  PANLAW 1
  PROJOFFS 0 0
  MAXPROJLEN 0 600
  GRID 3199 8 1 8 1 0 0 0
  TIMEMODE 1 5 -1 30 0
  VIDEO_CONFIG 0 0 256
  PANMODE 3
  CURSOR 0
  ZOOM 36.89352924515914 0 0
  VZOOMEX 6
  USE_REC_CFG 0
  RECMODE 1
  SMPTESYNC 0 30 100 40 1000 300 0 0 1 0 0
  LOOP 0
  LOOPGRAN 0 4
  RECORD_PATH "" ""
  <RECORD_CFG
  >
  <APPLYFX_CFG
  >
  RENDER_FILE ""
  RENDER_PATTERN ""
  RENDER_FMT 0 2 0
  RENDER_1X 0
  RENDER_RANGE 1 0 0 18 1000
  RENDER_RESAMPLE 3 0 1
  RENDER_ADDTOPROJ 0
  RENDER_STEMS 0
  RENDER_DITHER 0
  TIMELOCKMODE 1
  TEMPOENVLOCKMODE 1
  ITEMMIX 0
  DEFPITCHMODE 589824
  TAKELANE 1
  SAMPLERATE 44100 0 0
  <RENDER_CFG
  >
  LOCK 1
  <METRONOME 6 2
    VOL 0.25 0.125
    FREQ 800 1600 1
    BEATLEN 4
    SAMPLES "" ""
    PATTERN 2863311530 2863311529
  >
  GLOBAL_AUTO -1
  TEMPO 120 4 4
  PLAYRATE 1 0 0.25 4
  SELECTION 0 0
  SELECTION2 0 0
  MASTERAUTOMODE 0
  MASTERTRACKHEIGHT 0
  MASTERPEAKCOL 16576
  MASTERMUTESOLO 0
  MASTERTRACKVIEW 0 0.6667 0.5 0.5 0 0 0
  MASTERHWOUT 0 0 1 0 0 0 0 -1
  MASTER_NCH 2 2
  MASTER_VOLUME 1 0 -1 -1 1
  MASTER_FX 1
  MASTER_SEL 0
  <MASTERPLAYSPEEDENV
    ACT 0 -1
    VIS 0 1 1
    LANEHEIGHT 0 0
    ARM 0
    DEFSHAPE 0 -1 -1
  >
  <TEMPOENVEX
    ACT 0 -1
    VIS 1 0 1
    LANEHEIGHT 0 0
    ARM 0
    DEFSHAPE 1 -1 -1
  >
  <PROJBAY
  >
  <TRACK {24DE068D-14E7-DF48-A10D-693C3AF21683}
    NAME "Sax Linnstrument"
    PEAKCOL 16576
    BEAT -1
    AUTOMODE 0
    VOLPAN 1 0 -1 -1 1
    MUTESOLO 1 0 0
    IPHASE 0
    ISBUS 0 0
    BUSCOMP 0 0
    SHOWINMIX 1 0.6667 0.5 1 0.5 0 0 0
    FREEMODE 0
    SEL 1
    REC 0 5088 1 0 0 0 0
    VU 2
    TRACKHEIGHT 0 0
    INQ 0 0 0 0.5 100 0 0 100
    NCHAN 2
    FX 1
    TRACKID {24DE068D-14E7-DF48-A10D-693C3AF21683}
    PERF 0
    MIDIOUT -1
    MAINSEND 1 0
    <FXCHAIN
      WNDRECT 249 5 1025 676
      SHOW 0
      LASTSEL 0
      DOCKED 0
      BYPASS 0 0 0
      <AU "AUi: SWAM Tenor Sax (Audio Modeling)" "Audio Modeling: SWAM Tenor Sax" "" 1635085685 1398896724 1398227277
        6QMAAAAAAAAAAAAAAgAAAAEAAAAAAAAAAgAAAAAAAAAgKQAAPD94bWwgdmVyc2lvbj0iMS4wIiBlbmNvZGluZz0iVVRGLTgiPz4KPCFET0NUWVBFIHBsaXN0IFBVQkxJ
        QyAiLS8vQXBwbGUvL0RURCBQTElTVCAxLjAvL0VOIiAiaHR0cDovL3d3dy5hcHBsZS5jb20vRFREcy9Qcm9wZXJ0eUxpc3QtMS4wLmR0ZCI+CjxwbGlzdCB2ZXJzaW9u
        PSIxLjAiPgo8ZGljdD4KCTxrZXk+ZGF0YTwva2V5PgoJPGRhdGE+CglBQUFBQUFBQUFBQUFBQUNBQUFBQUFBQUFBQUFBQUFBQkFBQUFBQUFBQUFJQUFBQUFBQUFBQXdB
        QUFBQUFBQUFFQUFBQQoJQUFBQUFBVUFBQUFBQUFBQUJnQUFBQUFBQUFBSEFBQUFBQUFBQUFnQUFBQUFBQUFBQ1FBQUFBQUFBQUFLQUFBQUFBQUEKCUFBc0FBQUFBQUFB
        QURBQUFBQUFBQUFBTkFBQUFBQUFBQUE0QUFBQUFBQUFBRHdBQUFBQUFBQUFRQUFBQUFBQUFBQkVBCglBQUFBQUFBQUVnQUFBQUFBQUFBVEFBQUFBQUFBQUJRQUFBQUFB
        QUFBRlFBQUFBQUFBQUFXQUFBQUFBQUFBQmNBQUFBQQoJQUFBQUdBQUFBQUFBQUFBWkFBQUFBQUFBQUJvQUFBQUFBQUFBR3dBQUFBQUFBQUFjQUFBQUFBQUFBQjBBQUFB
        QUFBQUEKCUhnQUFBQUFBQUFBZkFBQUFBQUFBQUNBQUFBQUFBQUFBSVFBQUFBQUFBQUFpQUFBQUFBQUFBQ01BQUFBQUFBQUFKQUFBCglBQUFBQUFBbEFBQUFBQUFBQUNZ
        QUFBQUFBQUFBSndBQUFBQUFBQUFvQUFBQUFBQUFBQ2tBQUFBQUFBQUFLZ0FBQUFBQQoJQUFBckFBQUFBQUFBQUN3QUFBQUFBQUFBTFFBQUFBQUFBQUF1QUFBQUFBQUFB
        QzhBQUFBQUFBQUFNQUFBQUFBQUFBQXgKCUFBQUFBQUFBQURJQUFBQUFBQUFBTXdBQUFBQUFBQUEwQUFBQUFBQUFBRFVBQUFBQUFBQUFOZ0FBQUFBQUFBQTNBQUFBCglB
        QUFBQURnQUFBQUFBQUFBT1FBQUFBQUFBQUE2QUFBQUFBQUFBRHNBQUFBQUFBQUFQQUFBQUFBQUFBQTlBQUFBQUFBQQoJQUQ0QUFBQUFBQUFBUHdBQUFBQUFBQUJBQUFB
        QUFBQUFBRUVBQUFBQUFBQUFRZ0FBQUFBQUFBQkRBQUFBQUFBQUFFUUEKCUFBQUFBQUFBUlFBQUFBQUFBQUJHQUFBQUFBQUFBRWNBQUFBQUFBQUFTQUFBQUFBQUFBQkpB
        QUFBQUFBQUFFb0FBQUFBCglBQUFBU3dBQUFBQUFBQUJNQUFBQUFBQUFBRTBBQUFBQUFBQUFUZ0FBQUFBQUFBQlBBQUFBQUFBQUFGQUFBQUFBQUFBQQoJVVFBQUFBQUFB
        QUJTQUFBQUFBQUFBRk1BQUFBQUFBQUFWQUFBQUFBQUFBQlZBQUFBQUFBQUFGWUFBQUFBQUFBQVZ3QUEKCUFBQUFBQUJZQUFBQUFBQUFBRmtBQUFBQUFBQUFXZ0FBQUFB
        QUFBQmJBQUFBQUFBQUFGd0FBQUFBQUFBQVhRQUFBQUFBCglBQUJlQUFBQUFBQUFBRjhBQUFBQUFBQUFZQUFBQUFBQUFBQmhBQUFBQUFBQUFHSUFBQUFBQUFBQVl3QUFB
        QUFBQUFCawoJQUFBQUFBQUFBR1VBQUFBQUFBQUFaZ0FBQUFBQUFBQm5BQUFBQUFBQUFHZ0FBQUFBQUFBQWFRQUFBQUFBQUFCcUFBQUEKCUFBQUFBR3NBQUFBQUFBQUFi
        QUFBQUFBQUFBQnRBQUFBQUFBQUFHNEFBQUFBQUFBQWJ3QUFBQUFBQUFCd0FBQUFBQUFBCglBSEVBQUFBQUFBQUFjZ0FBQUFBQUFBQnpBQUFBQUFBQUFIUUFBQUFBQUFB
        QWRRQUFBQUFBQUFCMkFBQUFBQUFBQUhjQQoJQUFBQUFBQUFlQUFBQUFBQUFBQjVBQUFBQUFBQUFIb0FBQUFBQUFBQWV3QUFBQUFBQUFCOEFBQUFBQUFBQUgwQUFBQUEK
        CUFBQUFmZ0FBQUFBQUFBQi9BQUFBQUE9PQoJPC9kYXRhPgoJPGtleT5qdWNlUGx1Z2luU3RhdGU8L2tleT4KCTxkYXRhPgoJVmtNeUlXd1lBQUE4YzNkaGJTQjBlWEJs
        UFNKVFlYZ2lJSFpsY25OcGIyNDlJak1pUGp4a1lYUmxkR2x0WlNCMllXeDEKCVpUMGlWSFZsSUVGd2NpQXhNQ0F4T1Rvd016b3dNaUF5TURFNEppTXhNRHNpTHo0OGNI
        SnZaM0poYlNCMllXeDFaVDBpCglVMkY0VEdsdWJuTjBjblZ0Wlc1MElqNDhjR0Z5WVcwZ2JtRnRaVDBpYldGcGJsWnZiSFZ0WlNJZ2FXNWtaWGc5SWpBaQoJSUhaaGJI
        VmxQU0l3TGpjd016azVPVGs1TmlJdlBqeHdZWEpoYlNCdVlXMWxQU0p3WVc1UWIzUWlJR2x1WkdWNFBTSXgKCUlpQjJZV3gxWlQwaU1DNDFJaTgrUEhCaGNtRnRJRzVo
        YldVOUltMWhjM1JsY2xSMWJtVWlJR2x1WkdWNFBTSXlJaUIyCglZV3gxWlQwaU1DNDBPREl4TkRJNE5qWWlMejQ4Y0dGeVlXMGdibUZ0WlQwaWNtVjJaWEppVFdsNElp
        QnBibVJsZUQwaQoJTXlJZ2RtRnNkV1U5SWpBaUx6NDhjR0Z5WVcwZ2JtRnRaVDBpY21WMlpYSmlWR2x0WlNJZ2FXNWtaWGc5SWpRaUlIWmgKCWJIVmxQU0l3TGpVaUx6
        NDhjR0Z5WVcwZ2JtRnRaVDBpZEhKaGJuTndiM05sVUdGeVlXMGlJR2x1WkdWNFBTSTFJaUIyCglZV3gxWlQwaU1DNDFJaTgrUEhCaGNtRnRJRzVoYldVOUluQnBkR05v
        UW1WdVpGVndJaUJwYm1SbGVEMGlOaUlnZG1GcwoJZFdVOUlqQWlMejQ4Y0dGeVlXMGdibUZ0WlQwaWNHbDBZMmhDWlc1a1JHOTNiaUlnYVc1a1pYZzlJamNpSUhaaGJI
        VmwKCVBTSXdJaTgrUEhCaGNtRnRJRzVoYldVOUluWnBZbkpoZEc5U1lYUmxJaUJwYm1SbGVEMGlNVEFpSUhaaGJIVmxQU0l3CglJaTgrUEhCaGNtRnRJRzVoYldVOUlu
        WnZhV05sUTI5dFlqRlhaWFFpSUdsdVpHVjRQU0l4TVNJZ2RtRnNkV1U5SWpBdQoJTlNJdlBqeHdZWEpoYlNCdVlXMWxQU0p6ZFdKb1lYSnRSMkZwYmlJZ2FXNWtaWGc5
        SWpFMElpQjJZV3gxWlQwaU1DNHcKCU9UUTBPRGd4T0RnMklpOCtQSEJoY21GdElHNWhiV1U5SW1keWIzZHNSMkZwYmlJZ2FXNWtaWGc5SWpFMUlpQjJZV3gxCglaVDBp
        TUM0d05UVXhNVGd4TVNJdlBqeHdZWEpoYlNCdVlXMWxQU0ptYkhWMGRHVnlSMkZwYmlJZ2FXNWtaWGc5SWpFMgoJSWlCMllXeDFaVDBpTUNJdlBqeHdZWEpoYlNCdVlX
        MWxQU0pKVW5ObGJHVmpkR1ZrSWlCcGJtUmxlRDBpTVRjaUlIWmgKCWJIVmxQU0l3SWk4K1BIQmhjbUZ0SUc1aGJXVTlJbkpoYm1SdmJVUjVibUZ0YVdNaUlHbHVaR1Y0
        UFNJeE9DSWdkbUZzCglkV1U5SWpBdU1qY3lOekkzTWpneElpOCtQSEJoY21GdElHNWhiV1U5SW1SNWJtRnRhV05RYVhSamFDSWdhVzVrWlhnOQoJSWpFNUlpQjJZV3gx
        WlQwaU1DNHlNell5TWpBME56a2lMejQ4Y0dGeVlXMGdibUZ0WlQwaVlYUjBZV05yVkhsd1pTSWcKCWFXNWtaWGc5SWpJd0lpQjJZV3gxWlQwaU1DNDRNakF3TURBd05U
        SWlMejQ4Y0dGeVlXMGdibUZ0WlQwaWNtVnNWR2x0CglaU0lnYVc1a1pYZzlJakl4SWlCMllXeDFaVDBpTUNJdlBqeHdZWEpoYlNCdVlXMWxQU0ptYjNKdFlXNTBJaUJw
        Ym1SbAoJZUQwaU1qSWlJSFpoYkhWbFBTSXdJaTgrUEhCaGNtRnRJRzVoYldVOUltTnZiWEJ5WlhOemIzSWlJR2x1WkdWNFBTSXkKCU15SWdkbUZzZFdVOUlqQXVOU0l2
        UGp4d1lYSmhiU0J1WVcxbFBTSnRiMlJoYkZKbGMwZGhhVzRpSUdsdVpHVjRQU0l5CglOQ0lnZG1Gc2RXVTlJakF1TlNJdlBqeHdZWEpoYlNCdVlXMWxQU0ppY21WaGRH
        aE9iMmx6WlVkaGFXNGlJR2x1WkdWNAoJUFNJeU5TSWdkbUZzZFdVOUlqQXVOVEF6T1RNM01EQTJJaTgrUEhCaGNtRnRJRzVoYldVOUltdGxlVTV2YVhObFIyRnAKCWJp
        SWdhVzVrWlhnOUlqSTJJaUIyWVd4MVpUMGlNQzQxTURNNU16Y3dNRFlpTHo0OGNHRnlZVzBnYm1GdFpUMGlTR0Z5CgliVlJ5WVc1eklpQnBibVJsZUQwaU1qY2lJSFpo
        YkhWbFBTSXdMalV3TURBd01EQTJJaTgrUEhCaGNtRnRJRzVoYldVOQoJSW5CdmNuUmhiV1Z1ZEc5RGRISnNJaUJwYm1SbGVEMGlNamdpSUhaaGJIVmxQU0l3TGpneU1E
        QXdNREExTWlJdlBqeHcKCVlYSmhiU0J1WVcxbFBTSnlZVzF3VkdsdFpTSWdhVzVrWlhnOUlqSTVJaUIyWVd4MVpUMGlNQzQxSWk4K1BIQmhjbUZ0CglJRzVoYldVOUlt
        MWhlRkJ2Y25ScGJXVWlJR2x1WkdWNFBTSXpNQ0lnZG1Gc2RXVTlJakFpTHo0OGNHRnlZVzBnYm1GdAoJWlQwaWRtVnNVRzl5ZEVkaGFXNGlJR2x1WkdWNFBTSXpNU0ln
        ZG1Gc2RXVTlJakF1TlNJdlBqeHdZWEpoYlNCdVlXMWwKCVBTSmhkWFJ2Ulhod2NsQnZjblJoYlNJZ2FXNWtaWGc5SWpNeUlpQjJZV3gxWlQwaU1DNDFJaTgrUEhCaGNt
        RnRJRzVoCgliV1U5SW5acFluSmhkRzlTWVhSbFVtRnVaQ0lnYVc1a1pYZzlJak16SWlCMllXeDFaVDBpTUNJdlBqeHdZWEpoYlNCdQoJWVcxbFBTSnZkbVZ5WW14dmQx
        Um9jbVZ6YUNJZ2FXNWtaWGc5SWpNMElpQjJZV3gxWlQwaU1DNDFJaTgrUEhCaGNtRnQKCUlHNWhiV1U5SW1WNGNISmxjM05wYjI1UVpXUmhiRlI1Y0dVaUlHbHVaR1Y0
        UFNJek5TSWdkbUZzZFdVOUlqQXVNekF3CglNREF3TURFeUlpOCtQSEJoY21GdElHNWhiV1U5SW5CaGJuQnZkRlI1Y0dVaUlHbHVaR1Y0UFNJek5pSWdkbUZzZFdVOQoJ
        SWpBaUx6NDhjR0Z5WVcwZ2JtRnRaVDBpWTJoeWIyMWhkR2xqVDI1UFptWWlJR2x1WkdWNFBTSXpOeUlnZG1Gc2RXVTkKCUlqRWlMejQ4Y0dGeVlXMGdibUZ0WlQwaWRt
        VnNSWGh3Y2s5dVQyWm1JaUJwYm1SbGVEMGlNemdpSUhaaGJIVmxQU0l3CglJaTgrUEhCaGNtRnRJRzVoYldVOUltVjRjSEpsYzNOcGIyNURReUlnYVc1a1pYZzlJak01
        SWlCMllXeDFaVDBpTUM0NQoJT1RJeE9EYzFJaTgrUEhCaGNtRnRJRzVoYldVOUluWnBZbkpoZEc5RVpYQjBhRU5ESWlCcGJtUmxlRDBpTkRBaUlIWmgKCWJIVmxQU0l4
        SWk4K1BIQmhjbUZ0SUc1aGJXVTlJblpwWW5KaGRHOVNZWFJsUTBNaUlHbHVaR1Y0UFNJME1TSWdkbUZzCglkV1U5SWpFaUx6NDhjR0Z5WVcwZ2JtRnRaVDBpY0c5eWRH
        RnRaVzUwYjFScGJXVkRReUlnYVc1a1pYZzlJalF5SWlCMgoJWVd4MVpUMGlNQzR3TXpFeU5TSXZQanh3WVhKaGJTQnVZVzFsUFNKb1lYSnRiMjVwWTFOMGNuVmpkSFZ5
        WlVORElpQnAKCWJtUmxlRDBpTkRNaUlIWmhiSFZsUFNJd0xqRTNPVFk0TnpVaUx6NDhjR0Z5WVcwZ2JtRnRaVDBpYzNWaVNHRnliVzl1CglhV056UTBNaUlHbHVaR1Y0
        UFNJME5DSWdkbUZzZFdVOUlqQXVNVFE0TkRNM05TSXZQanh3WVhKaGJTQnVZVzFsUFNKbgoJY205M2JFTkRJaUJwYm1SbGVEMGlORFVpSUhaaGJIVmxQU0l3TGpFMU5q
        STFJaTgrUEhCaGNtRnRJRzVoYldVOUltWnMKCWRYUjBaWEpVYjI1bmRXVkRReUlnYVc1a1pYZzlJalEySWlCMllXeDFaVDBpTVNJdlBqeHdZWEpoYlNCdVlXMWxQU0pp
        CgljbVZoZEdoT2IybHpaVU5ESWlCcGJtUmxlRDBpTkRjaUlIWmhiSFZsUFNJd0xqRTROelVpTHo0OGNHRnlZVzBnYm1GdAoJWlQwaWEyVjVUbTlwYzJWRFF5SWdhVzVr
        WlhnOUlqUTRJaUIyWVd4MVpUMGlNQzR3TmpJMUlpOCtQSEJoY21GdElHNWgKCWJXVTlJbTkyWlhKaWJHOTNVM2RwZEdOb1EwTWlJR2x1WkdWNFBTSTBPU0lnZG1Gc2RX
        VTlJakF1TkRreU1UZzNOU0l2CglQanh3WVhKaGJTQnVZVzFsUFNKbVlXeHNaRzkzYmxOM2FYUmphRU5ESWlCcGJtUmxlRDBpTlRBaUlIWmhiSFZsUFNJeAoJSWk4K1BI
        QmhjbUZ0SUc1aGJXVTlJa1I1Ym1GdGFXTlFhWFJqYUVORElpQnBibVJsZUQwaU5URWlJSFpoYkhWbFBTSXcKCUxqQTFORFk0TnpVaUx6NDhjR0Z5WVcwZ2JtRnRaVDBp
        YTNOUFkzUlVjbUZ6Y0NJZ2FXNWtaWGc5SWpVeklpQjJZV3gxCglaVDBpTUNJdlBqeHdZWEpoYlNCdVlXMWxQU0p0YVdOeWIzUjFibWx1WjBORElpQnBibVJsZUQwaU5U
        UWlJSFpoYkhWbAoJUFNJd0xqSXpORE0zTlNJdlBqeHdZWEpoYlNCdVlXMWxQU0p0YVdOeWIzUjFibWx1WnpBaUlHbHVaR1Y0UFNJMU5TSWcKCWRtRnNkV1U5SWpBdU1E
        Z3pNek16TXpNMU9DSXZQanh3WVhKaGJTQnVZVzFsUFNKdGFXTnliM1IxYm1sdVp6RWlJR2x1CglaR1Y0UFNJMU5pSWdkbUZzZFdVOUlqQXVNRGd6TXpNek16TTFPQ0l2
        UGp4d1lYSmhiU0J1WVcxbFBTSnRhV055YjNSMQoJYm1sdVp6SWlJR2x1WkdWNFBTSTFOeUlnZG1Gc2RXVTlJakF1TURnek16TXpNek0xT0NJdlBqeHdZWEpoYlNCdVlX
        MWwKCVBTSnRhV055YjNSMWJtbHVaek1pSUdsdVpHVjRQU0kxT0NJZ2RtRnNkV1U5SWpBdU1EZ3pNek16TXpNMU9DSXZQanh3CglZWEpoYlNCdVlXMWxQU0p0YVdOeWIz
        UjFibWx1WnpRaUlHbHVaR1Y0UFNJMU9TSWdkbUZzZFdVOUlqQXVNRGd6TXpNegoJTXpNMU9DSXZQanh3WVhKaGJTQnVZVzFsUFNKdGFXTnliM1IxYm1sdVp6VWlJR2x1
        WkdWNFBTSTJNQ0lnZG1Gc2RXVTkKCUlqQXVNRGd6TXpNek16TTFPQ0l2UGp4d1lYSmhiU0J1WVcxbFBTSnRhV055YjNSMWJtbHVaellpSUdsdVpHVjRQU0kyCglNU0ln
        ZG1Gc2RXVTlJakF1TURnek16TXpNek0xT0NJdlBqeHdZWEpoYlNCdVlXMWxQU0p0YVdOeWIzUjFibWx1WnpjaQoJSUdsdVpHVjRQU0kyTWlJZ2RtRnNkV1U5SWpBdU1E
        Z3pNek16TXpNMU9DSXZQanh3WVhKaGJTQnVZVzFsUFNKdGFXTnkKCWIzUjFibWx1WnpnaUlHbHVaR1Y0UFNJMk15SWdkbUZzZFdVOUlqQXVNRGd6TXpNek16TTFPQ0l2
        UGp4d1lYSmhiU0J1CglZVzFsUFNKdGFXTnliM1IxYm1sdVp6a2lJR2x1WkdWNFBTSTJOQ0lnZG1Gc2RXVTlJakF1TURnek16TXpNek0xT0NJdgoJUGp4d1lYSmhiU0J1
        WVcxbFBTSnRhV055YjNSMWJtbHVaekV3SWlCcGJtUmxlRDBpTmpVaUlIWmhiSFZsUFNJd0xqQTQKCU16TXpNek16TlRnaUx6NDhjR0Z5WVcwZ2JtRnRaVDBpYldsamNt
        OTBkVzVwYm1jeE1TSWdhVzVrWlhnOUlqWTJJaUIyCglZV3gxWlQwaU1DNHdPRE16TXpNek16VTRJaTgrUEhCaGNtRnRJRzVoYldVOUlsUmxiWEJsY21GdElpQnBibVJs
        ZUQwaQoJTmpjaUlIWmhiSFZsUFNJd0xqVWlMejQ4Y0dGeVlXMGdibUZ0WlQwaVFYUjBZV05yVTNSaGNuUWlJR2x1WkdWNFBTSTIKCU9DSWdkbUZzZFdVOUlqQXVOU0l2
        UGp4d1lYSmhiU0J1WVcxbFBTSnRkRU5mVDI1UFptWWlJR2x1WkdWNFBTSTJPU0lnCglkbUZzZFdVOUlqQWlMejQ4Y0dGeVlXMGdibUZ0WlQwaWJYUkRVMTlQYms5bVpp
        SWdhVzVrWlhnOUlqY3dJaUIyWVd4MQoJWlQwaU1DSXZQanh3WVhKaGJTQnVZVzFsUFNKdGRFUmZUMjVQWm1ZaUlHbHVaR1Y0UFNJM01TSWdkbUZzZFdVOUlqQWkKCUx6
        NDhjR0Z5WVcwZ2JtRnRaVDBpYlhSRVUxOVBiazltWmlJZ2FXNWtaWGc5SWpjeUlpQjJZV3gxWlQwaU1DSXZQanh3CglZWEpoYlNCdVlXMWxQU0p0ZEVWZlQyNVBabVlp
        SUdsdVpHVjRQU0kzTXlJZ2RtRnNkV1U5SWpBaUx6NDhjR0Z5WVcwZwoJYm1GdFpUMGliWFJHWDA5dVQyWm1JaUJwYm1SbGVEMGlOelFpSUhaaGJIVmxQU0l3SWk4K1BI
        QmhjbUZ0SUc1aGJXVTkKCUltMTBSbE5mVDI1UFptWWlJR2x1WkdWNFBTSTNOU0lnZG1Gc2RXVTlJakFpTHo0OGNHRnlZVzBnYm1GdFpUMGliWFJICglYMDl1VDJabUlp
        QnBibVJsZUQwaU56WWlJSFpoYkhWbFBTSXdJaTgrUEhCaGNtRnRJRzVoYldVOUltMTBSMU5mVDI1UAoJWm1ZaUlHbHVaR1Y0UFNJM055SWdkbUZzZFdVOUlqQWlMejQ4
        Y0dGeVlXMGdibUZ0WlQwaWJYUkJYMDl1VDJabUlpQnAKCWJtUmxlRDBpTnpnaUlIWmhiSFZsUFNJd0lpOCtQSEJoY21GdElHNWhiV1U5SW0xMFFWTmZUMjVQWm1ZaUlH
        bHVaR1Y0CglQU0kzT1NJZ2RtRnNkV1U5SWpBaUx6NDhjR0Z5WVcwZ2JtRnRaVDBpYlhSQ1gwOXVUMlptSWlCcGJtUmxlRDBpT0RBaQoJSUhaaGJIVmxQU0l3SWk4K1BI
        QmhjbUZ0SUc1aGJXVTlJbTFoYVc1V2IyeDFiV1ZEUXlJZ2FXNWtaWGc5SWpneElpQjIKCVlXeDFaVDBpTUM0d05EWTROelVpTHo0OGNHRnlZVzBnYm1GdFpUMGljR0Z1
        VUc5MFEwTWlJR2x1WkdWNFBTSTRNaUlnCglkbUZzZFdVOUlqQXVNRGN3TXpFeU5TSXZQanh3WVhKaGJTQnVZVzFsUFNKeVpYWmxjbUpOYVhoRFF5SWdhVzVrWlhnOQoJ
        SWpneklpQjJZV3gxWlQwaU1DNDNNRE14TWpVaUx6NDhjR0Z5WVcwZ2JtRnRaVDBpUWtOdGIyUmxJaUJwYm1SbGVEMGkKCU9EUWlJSFpoYkhWbFBTSXdJaTgrUEhCaGNt
        RnRJRzVoYldVOUlrSkRYMEYwYTFObGJuTWlJR2x1WkdWNFBTSTROU0lnCglkbUZzZFdVOUlqQXVNek16TXpNek16UXpJaTgrUEhCaGNtRnRJRzVoYldVOUltWnZjbTFo
        Ym5SRFF5SWdhVzVrWlhnOQoJSWpnMklpQjJZV3gxWlQwaU1DNDFOekF6TVRJMUlpOCtQSEJoY21GdElHNWhiV1U5SW14bFoyRjBiMDF2WkdVaUlHbHUKCVpHVjRQU0k0
        TnlJZ2RtRnNkV1U5SWpFaUx6NDhjR0Z5WVcwZ2JtRnRaVDBpYkdWbllYUnZUVzlrWlVORElpQnBibVJsCgllRDBpT0RnaUlIWmhiSFZsUFNJeElpOCtQSEJoY21GdElH
        NWhiV1U5SW10elRXbGthVU5vSWlCcGJtUmxlRDBpT1RBaQoJSUhaaGJIVmxQU0l4SWk4K1BIQmhjbUZ0SUc1aGJXVTlJbk4xYzNSaGFXNURReUlnYVc1a1pYZzlJamt4
        SWlCMllXeDEKCVpUMGlNU0l2UGp4d1lYSmhiU0J1WVcxbFBTSmtkWEJzYVdOaGRHVlFVR3hoZVdWeUlpQnBibVJsZUQwaU9USWlJSFpoCgliSFZsUFNJd0lpOCtQSEJo
        Y21GdElHNWhiV1U5SWsxSlJFbDJZV3hOYVc0d0lpQnBibVJsZUQwaU9UTWlJSFpoYkhWbAoJUFNJd0lpOCtQSEJoY21GdElHNWhiV1U5SWsxSlJFbDJZV3hOYVc0eElp
        QnBibVJsZUQwaU9UUWlJSFpoYkhWbFBTSXcKCUlpOCtQSEJoY21GdElHNWhiV1U5SWsxSlJFbDJZV3hOYVc0eUlpQnBibVJsZUQwaU9UVWlJSFpoYkhWbFBTSXdJaTgr
        CglQSEJoY21GdElHNWhiV1U5SWsxSlJFbDJZV3hOYVc0eklpQnBibVJsZUQwaU9UWWlJSFpoYkhWbFBTSXdJaTgrUEhCaAoJY21GdElHNWhiV1U5SWsxSlJFbDJZV3hO
        YVc0MElpQnBibVJsZUQwaU9UY2lJSFpoYkhWbFBTSXdJaTgrUEhCaGNtRnQKCUlHNWhiV1U5SWsxSlJFbDJZV3hOYVc0MUlpQnBibVJsZUQwaU9UZ2lJSFpoYkhWbFBT
        SXdJaTgrUEhCaGNtRnRJRzVoCgliV1U5SWsxSlJFbDJZV3hOYVc0MklpQnBibVJsZUQwaU9Ua2lJSFpoYkhWbFBTSXdJaTgrUEhCaGNtRnRJRzVoYldVOQoJSWsxSlJF
        bDJZV3hOYVc0M0lpQnBibVJsZUQwaU1UQXdJaUIyWVd4MVpUMGlNQ0l2UGp4d1lYSmhiU0J1WVcxbFBTSk4KCVNVUkpkbUZzVFdsdU9DSWdhVzVrWlhnOUlqRXdNU0ln
        ZG1Gc2RXVTlJakFpTHo0OGNHRnlZVzBnYm1GdFpUMGlUVWxFCglTWFpoYkUxcGJqa2lJR2x1WkdWNFBTSXhNRElpSUhaaGJIVmxQU0l3SWk4K1BIQmhjbUZ0SUc1aGJX
        VTlJazFKUkVsMgoJWVd4TmFXNHhNQ0lnYVc1a1pYZzlJakV3TXlJZ2RtRnNkV1U5SWpBaUx6NDhjR0Z5WVcwZ2JtRnRaVDBpVFVsRVNYWmgKCWJFMXBiakV4SWlCcGJt
        UmxlRDBpTVRBMElpQjJZV3gxWlQwaU1DSXZQanh3WVhKaGJTQnVZVzFsUFNKTlNVUkpkbUZzCglUV2x1TVRJaUlHbHVaR1Y0UFNJeE1EVWlJSFpoYkhWbFBTSXdJaTgr
        UEhCaGNtRnRJRzVoYldVOUlrMUpSRWwyWVd4TgoJYVc0eE15SWdhVzVrWlhnOUlqRXdOaUlnZG1Gc2RXVTlJakFpTHo0OGNHRnlZVzBnYm1GdFpUMGlUVWxFU1haaGJF
        MXAKCWJqRTBJaUJwYm1SbGVEMGlNVEEzSWlCMllXeDFaVDBpTUNJdlBqeHdZWEpoYlNCdVlXMWxQU0pOU1VSSmRtRnNUV0Y0CglNQ0lnYVc1a1pYZzlJakV4TUNJZ2Rt
        RnNkV1U5SWpFaUx6NDhjR0Z5WVcwZ2JtRnRaVDBpVFVsRVNYWmhiRTFoZURFaQoJSUdsdVpHVjRQU0l4TVRFaUlIWmhiSFZsUFNJeElpOCtQSEJoY21GdElHNWhiV1U5
        SWsxSlJFbDJZV3hOWVhneUlpQnAKCWJtUmxlRDBpTVRFeUlpQjJZV3gxWlQwaU1TSXZQanh3WVhKaGJTQnVZVzFsUFNKTlNVUkpkbUZzVFdGNE15SWdhVzVrCglaWGc5
        SWpFeE15SWdkbUZzZFdVOUlqRWlMejQ4Y0dGeVlXMGdibUZ0WlQwaVRVbEVTWFpoYkUxaGVEUWlJR2x1WkdWNAoJUFNJeE1UUWlJSFpoYkhWbFBTSXhJaTgrUEhCaGNt
        RnRJRzVoYldVOUlrMUpSRWwyWVd4TllYZzFJaUJwYm1SbGVEMGkKCU1URTFJaUIyWVd4MVpUMGlNU0l2UGp4d1lYSmhiU0J1WVcxbFBTSk5TVVJKZG1Gc1RXRjROaUln
        YVc1a1pYZzlJakV4CglOaUlnZG1Gc2RXVTlJakVpTHo0OGNHRnlZVzBnYm1GdFpUMGlUVWxFU1haaGJFMWhlRGNpSUdsdVpHVjRQU0l4TVRjaQoJSUhaaGJIVmxQU0l4
        SWk4K1BIQmhjbUZ0SUc1aGJXVTlJazFKUkVsMllXeE5ZWGc0SWlCcGJtUmxlRDBpTVRFNElpQjIKCVlXeDFaVDBpTVNJdlBqeHdZWEpoYlNCdVlXMWxQU0pOU1VSSmRt
        RnNUV0Y0T1NJZ2FXNWtaWGc5SWpFeE9TSWdkbUZzCglkV1U5SWpFaUx6NDhjR0Z5WVcwZ2JtRnRaVDBpVFVsRVNYWmhiRTFoZURFd0lpQnBibVJsZUQwaU1USXdJaUIy
        WVd4MQoJWlQwaU1TSXZQanh3WVhKaGJTQnVZVzFsUFNKTlNVUkpkbUZzVFdGNE1URWlJR2x1WkdWNFBTSXhNakVpSUhaaGJIVmwKCVBTSXhJaTgrUEhCaGNtRnRJRzVo
        YldVOUlrMUpSRWwyWVd4TllYZ3hNaUlnYVc1a1pYZzlJakV5TWlJZ2RtRnNkV1U5CglJakVpTHo0OGNHRnlZVzBnYm1GdFpUMGlUVWxFU1haaGJFMWhlREV6SWlCcGJt
        UmxlRDBpTVRJeklpQjJZV3gxWlQwaQoJTVNJdlBqeHdZWEpoYlNCdVlXMWxQU0pOU1VSSmRtRnNUV0Y0TVRRaUlHbHVaR1Y0UFNJeE1qUWlJSFpoYkhWbFBTSXgKCUlp
        OCtQSEJoY21GdElHNWhiV1U5SW5CbGNrNXZkR1ZRYVhSamFFSmxibVJTWVc1blpTSWdhVzVrWlhnOUlqRXlOeUlnCglkbUZzZFdVOUlqQXVOREk0TlRjeE5ETXpJaTgr
        UEM5d2NtOW5jbUZ0UGp3dmMzZGhiVDRBCgk8L2RhdGE+Cgk8a2V5Pm1hbnVmYWN0dXJlcjwva2V5PgoJPGludGVnZXI+MTM5ODIyNzI3NzwvaW50ZWdlcj4KCTxrZXk+
        bmFtZTwva2V5PgoJPHN0cmluZz5VbnRpdGxlZDwvc3RyaW5nPgoJPGtleT5zdWJ0eXBlPC9rZXk+Cgk8aW50ZWdlcj4xMzk4ODk2NzI0PC9pbnRlZ2VyPgoJPGtleT50
        eXBlPC9rZXk+Cgk8aW50ZWdlcj4xNjM1MDg1Njg1PC9pbnRlZ2VyPgoJPGtleT52ZXJzaW9uPC9rZXk+Cgk8aW50ZWdlcj4wPC9pbnRlZ2VyPgo8L2RpY3Q+CjwvcGxp
        c3Q+CgEAAAAAAAAAAAA=
      >
      FLOATPOS 0 0 0 0
      FXID {74E904A4-F3A4-FE4B-A74B-067874316F24}
      WAK 0
    >
    <ITEM
      POSITION 0
      SNAPOFFS 0
      LENGTH 8.3296875
      LOOP 1
      ALLTAKES 0
      FADEIN 1 0 0 1 0 0
      FADEOUT 1 0 0 1 0 0
      MUTE 0
      SEL 0
      IGUID {DD2A68BA-36D8-F144-A925-1CCFE2F93224}
      IID 9
      NAME "01-Sax Linnstrument-Recorded MIDI"
      VOLPAN 1 0 1 -1
      SOFFS 0 0
      PLAYRATE 1 1 0 -1 0 0.0025
      CHANMODE 0
      GUID {4FB15619-0AAB-FF47-ADD0-A64CD235EAAB}
      RECPASS 6
      <SOURCE MIDI
        HASDATA 1 960 QN
        POOLEDEVTS {AE4FA898-A2CF-8D42-A1BB-6887DCCE0216}
        E 4365 e0 00 40
        E 1 b0 4a 44
        E 2 a0 3c 00
        E 2 90 3c 28
        E 20 b0 4a 4e
        E 1 a0 3c 10
        E 23 b0 4a 52
        E 1 a0 3c 1c
        E 23 b0 4a 54
        E 2 a0 3c 25
        E 22 a0 3c 2b
        E 12 b0 4a 53
        E 12 a0 3c 2f
        E 12 b0 4a 54
        E 11 a0 3c 30
        E 12 b0 4a 55
        E 12 a0 3c 32
        E 24 a0 3c 35
        E 12 b0 4a 56
        E 11 e0 18 40
        E 2 a0 3c 37
        E 10 b0 4a 57
        E 12 a0 3c 39
        E 12 b0 4a 56
        E 12 a0 3c 3a
        E 23 a0 3c 3b
        E 24 a0 3c 3e
        E 23 e0 00 40
        E 1 a0 3c 40
        E 22 a0 3c 44
        E 24 b0 4a 55
        E 23 b0 4a 54
        E 23 b0 4a 53
        E 2 a0 3c 45
        E 22 b0 4a 52
        E 11 a0 3c 46
        E 12 b0 4a 50
        E 12 a0 3c 47
        E 12 b0 4a 4f
        E 11 a0 3c 46
        E 12 b0 4a 4e
        E 12 a0 3c 45
        E 23 b0 4a 4f
        E 2 a0 3c 42
        E 22 a0 3c 40
        E 23 b0 4a 4e
        E 2 a0 3c 3d
        E 22 a0 3c 3e
        E 12 b0 4a 4d
        E 11 a0 3c 3d
        E 12 b0 4a 4c
        E 12 a0 3c 3c
        E 12 b0 4a 4d
        E 12 a0 3c 39
        E 6 e0 00 40
        E 2 b0 4a 53
        E 2 a0 3d 00
        E 1 90 3d 3b
        E 18 a0 3c 33
        E 5 a0 3d 15
        E 21 a0 3c 22
        E 6 b0 4a 52
        E 2 a0 3d 1e
        E 12 e0 68 3f
        E 7 a0 3c 14
        E 6 b0 4a 53
        E 2 a0 3d 29
        E 5 a0 3c 00
        E 5 80 3c 1e
        E 5 e0 68 3f
        E 8 b0 4a 54
        E 1 a0 3d 35
        E 23 b0 4a 55
        E 1 a0 3d 40
        E 22 a0 3d 4a
        E 23 a0 3d 52
        E 12 e0 00 40
        E 1 b0 4a 54
        E 10 a0 3d 57
        E 12 b0 4a 51
        E 12 a0 3d 5a
        E 11 b0 4a 50
        E 23 b0 4a 4f
        E 2 a0 3d 59
        E 21 b0 4a 4e
        E 12 a0 3d 58
        E 23 a0 3d 57
        E 12 b0 4a 4f
        E 11 a0 3d 56
        E 12 b0 4a 50
        E 12 a0 3d 55
        E 11 b0 4a 52
        E 12 a0 3d 54
        E 12 b0 4a 53
        E 34 a0 3d 55
        E 12 b0 4a 54
        E 23 b0 4a 52
        E 1 a0 3d 56
        E 22 b0 4a 50
        E 2 a0 3d 58
        E 21 b0 4a 4d
        E 2 a0 3d 57
        E 21 b0 4a 4e
        E 2 a0 3d 54
        E 21 b0 4a 4f
        E 3 a0 3d 51
        E 21 b0 4a 52
        E 2 a0 3d 4e
        E 22 b0 4a 54
        E 1 a0 3d 4c
        E 22 b0 4a 56
        E 2 a0 3d 4a
        E 22 a0 3d 46
        E 24 a0 3d 42
        E 12 e0 00 40
        E 1 b0 4a 4a
        E 2 a0 3e 00
        E 1 90 3e 3b
        E 12 a0 3d 3b
        E 11 b0 4a 4e
        E 2 a0 3e 28
        E 14 a0 3d 33
        E 11 a0 3e 34
        E 15 a0 3d 2d
        E 11 b0 4a 4d
        E 1 a0 3e 40
        E 15 a0 3d 24
        E 11 b0 4a 4c
        E 1 a0 3e 4a
        E 14 a0 3d 19
        E 11 b0 4a 4d
        E 1 a0 3e 51
        E 13 a0 3d 0f
        E 11 a0 3e 56
        E 14 a0 3d 00
        E 6 80 3d 13
        E 5 e0 00 40
        E 2 b0 4a 4c
        E 2 a0 3e 59
        E 20 b0 4a 4a
        E 1 a0 3e 5b
        E 22 a0 3e 5c
        E 11 b0 4a 4b
        E 12 a0 3e 5d
        E 12 b0 4a 4c
        E 11 a0 3e 5f
        E 12 b0 4a 4f
        E 12 a0 3e 5e
        E 11 b0 4a 52
        E 23 b0 4a 54
        E 23 b0 4a 58
        E 11 a0 3e 5d
        E 12 b0 4a 59
        E 23 b0 4a 5b
        E 1 a0 3e 5c
        E 22 b0 4a 5e
        E 2 a0 3e 5b
        E 21 b0 4a 60
        E 2 a0 3e 5a
        E 22 b0 4a 63
        E 2 a0 3e 58
        E 21 b0 4a 65
        E 2 a0 3e 56
        E 21 a0 3e 53
        E 12 b0 4a 66
        E 23 b0 4a 68
        E 12 a0 3e 54
        E 23 b0 4a 69
        E 1 a0 3e 55
        E 22 b0 4a 6c
        E 23 b0 4a 6d
        E 23 b0 4a 6e
        E 2 a0 3e 54
        E 22 b0 4a 6f
        E 1 a0 3e 51
        E 22 b0 4a 71
        E 2 a0 3e 4b
        E 23 b0 4a 6f
        E 1 a0 3e 48
        E 3 e0 00 40
        E 1 b0 4a 22
        E 2 a0 3f 00
        E 1 90 3f 23
        E 7 a0 3e 43
        E 17 b0 4a 1e
        E 1 a0 3f 0b
        E 9 a0 3e 3c
        E 17 b0 4a 1d
        E 1 a0 3f 12
        E 9 a0 3e 34
        E 17 e0 18 40
        E 1 b0 4a 19
        E 2 a0 3f 1b
        E 7 a0 3e 2b
        E 17 e0 30 40
        E 1 b0 4a 1a
        E 2 a0 3f 27
        E 8 a0 3e 23
        E 16 e0 48 40
        E 1 a0 3f 2f
        E 9 a0 3e 18
        E 13 a0 3e 00
        E 5 80 3e 24
        E 5 e0 48 40
        E 2 b0 4a 1b
        E 1 a0 3f 36
        E 14 e0 30 40
        E 2 b0 4a 1e
        E 1 a0 3f 3e
        E 21 e0 18 40
        E 2 b0 4a 1f
        E 1 a0 3f 41
        E 21 b0 4a 21
        E 1 a0 3f 42
        E 10 e0 00 40
        E 12 a0 3f 44
        E 23 b0 4a 22
        E 2 a0 3f 45
        E 22 b0 4a 24
        E 1 a0 3f 46
        E 22 b0 4a 29
        E 23 b0 4a 2e
        E 11 a0 3f 47
        E 12 e0 18 40
        E 2 b0 4a 33
        E 10 a0 3f 49
        E 12 b0 4a 38
        E 11 a0 3f 4d
        E 12 b0 4a 3a
        E 12 a0 3f 50
        E 11 b0 4a 3c
        E 12 e0 00 40
        E 1 a0 3f 52
        E 11 b0 4a 3e
        E 34 b0 4a 40
        E 24 b0 4a 42
        E 1 a0 3f 51
        E 22 b0 4a 45
        E 1 a0 3f 4f
        E 22 b0 4a 46
        E 2 a0 3f 4c
        E 21 b0 4a 47
        E 2 a0 3f 4b
        E 22 b0 4a 49
        E 1 a0 3f 4a
        E 22 b0 4a 4a
        E 2 a0 3f 49
        E 21 b0 4a 4b
        E 24 b0 4a 4c
        E 11 a0 3f 48
        E 12 b0 4a 4e
        E 12 a0 3f 47
        E 11 b0 4a 4f
        E 12 a0 3f 46
        E 12 b0 4a 52
        E 11 a0 3f 44
        E 12 b0 4a 56
        E 12 a0 3f 41
        E 12 b0 4a 59
        E 12 a0 3f 39
        E 9 e0 00 40
        E 1 b0 4a 1a
        E 2 a0 41 00
        E 1 90 41 23
        E 15 a0 3f 2b
        E 9 b0 4a 23
        E 1 a0 41 0f
        E 18 a0 3f 1b
        E 8 b0 4a 24
        E 1 a0 41 1a
        E 16 a0 3f 00
        E 5 80 3f 1e
        E 5 e0 00 40
        E 2 b0 4a 2a
        E 2 a0 41 26
        E 19 b0 4a 2c
        E 1 a0 41 33
        E 22 b0 4a 2b
        E 2 a0 41 3d
        E 21 b0 4a 2d
        E 2 a0 41 44
        E 22 a0 41 4a
        E 11 b0 4a 2e
        E 12 a0 41 4e
        E 12 b0 4a 2f
        E 11 a0 41 4d
        E 12 b0 4a 2c
        E 12 a0 41 4c
        E 23 b0 4a 2d
        E 2 a0 41 4a
        E 21 b0 4a 2f
        E 12 a0 41 4b
        E 11 b0 4a 31
        E 12 a0 41 4e
        E 12 b0 4a 32
        E 11 a0 41 50
        E 12 b0 4a 33
        E 12 a0 41 51
        E 23 b0 4a 34
        E 11 a0 41 50
        E 12 b0 4a 33
        E 23 b0 4a 34
        E 2 a0 41 4e
        E 22 b0 4a 33
        E 1 a0 41 4d
        E 22 b0 4a 34
        E 1 a0 41 4c
        E 22 b0 4a 35
        E 2 a0 41 4f
        E 21 b0 4a 36
        E 2 a0 41 4e
        E 22 b0 4a 37
        E 1 a0 41 4f
        E 22 a0 41 4e
        E 23 a0 41 4c
        E 23 a0 41 4d
        E 12 b0 4a 38
        E 23 b0 4a 39
        E 12 a0 41 4b
        E 23 b0 4a 3a
        E 2 a0 41 4a
        E 21 a0 41 4c
        E 24 b0 4a 3b
        E 12 a0 41 4b
        E 12 b0 4a 3a
        E 11 a0 41 46
        E 8 e0 00 40
        E 2 b0 4a 4b
        E 1 a0 42 00
        E 2 90 42 27
        E 5 a0 41 42
        E 18 b0 4a 56
        E 2 a0 42 19
        E 5 a0 41 3a
        E 20 b0 4a 58
        E 2 a0 42 26
        E 5 a0 41 30
        E 20 a0 42 30
        E 7 a0 41 26
        E 7 b0 4a 5a
        E 12 a0 42 3b
        E 7 a0 41 1c
        E 7 b0 4a 5c
        E 13 a0 42 42
        E 7 a0 41 12
        E 6 b0 4a 5f
        E 13 a0 42 48
        E 6 a0 41 00
        E 5 80 41 13
        E 6 e0 00 40
        E 1 b0 4a 60
        E 7 a0 42 4f
        E 12 b0 4a 61
        E 12 a0 42 51
        E 12 b0 4a 62
        E 11 a0 42 55
        E 12 b0 4a 63
        E 11 a0 42 57
        E 24 b0 4a 64
        E 1 a0 42 58
        E 33 a0 42 57
        E 23 a0 42 58
        E 23 b0 4a 63
        E 2 a0 42 59
        E 22 a0 42 5a
        E 34 b0 4a 62
        E 23 a0 42 59
        E 23 b0 4a 61
        E 2 a0 42 58
        E 22 b0 4a 62
        E 1 a0 42 57
        E 22 b0 4a 64
        E 12 a0 42 56
        E 23 a0 42 54
        E 23 b0 4a 65
        E 2 a0 42 52
        E 22 b0 4a 66
        E 1 a0 42 4e
        E 22 b0 4a 69
        E 1 a0 42 4c
        E 34 a0 42 4d
        E 23 b0 4a 68
        E 1 a0 42 50
        E 22 b0 4a 69
        E 2 a0 42 54
        E 21 a0 42 57
        E 12 b0 4a 68
        E 12 a0 42 58
        E 23 b0 4a 69
        E 1 a0 42 57
        E 22 b0 4a 68
        E 12 a0 42 56
        E 23 b0 4a 69
        E 1 a0 42 53
        E 23 b0 4a 66
        E 1 a0 42 50
        E 11 e0 00 40
        E 2 b0 4a 60
        E 1 a0 43 00
        E 2 90 43 18
        E 11 a0 42 4b
        E 12 b0 4a 63
        E 1 a0 43 0c
        E 14 a0 42 44
        E 11 b0 4a 65
        E 1 a0 43 17
        E 14 a0 42 3c
        E 12 b0 4a 6a
        E 1 a0 43 25
        E 14 a0 42 37
        E 11 b0 4a 6d
        E 2 a0 43 2c
        E 13 a0 42 30
        E 12 b0 4a 6e
        E 1 a0 43 30
        E 14 a0 42 23
        E 11 b0 4a 6f
        E 2 a0 43 32
        E 14 a0 42 13
        E 11 a0 43 34
        E 1 a0 42 00
        E 6 80 42 22
        E 6 e0 00 40
        E 1 b0 4a 70
        E 11 a0 43 37
        E 12 b0 4a 72
        E 12 a0 43 39
        E 13 b0 4a 71
        E 11 a0 43 3a
        E 13 b0 4a 73
        E 11 a0 43 3b
        E 12 b0 4a 74
        E 12 a0 43 3c
        E 12 b0 4a 75
        E 11 a0 43 3a
        E 24 a0 43 36
        E 12 b0 4a 76
        E 12 a0 43 34
        E 12 b0 4a 75
        E 12 a0 43 33
        E 11 b0 4a 74
        E 12 a0 43 34
        E 12 b0 4a 73
        E 24 b0 4a 72
        E 12 a0 43 35
        E 23 a0 43 34
        E 24 a0 43 33
        E 24 a0 43 31
        E 12 b0 4a 71
        E 23 b0 4a 72
        E 12 a0 43 30
        E 12 b0 4a 73
        E 12 a0 43 2f
        E 12 e0 18 40
        E 2 b0 4a 74
        E 10 a0 43 2e
        E 12 b0 4a 76
        E 12 a0 43 2f
        E 12 b0 4a 77
        E 12 a0 43 2c
        E 12 e0 00 40
        E 2 b0 4a 75
        E 11 a0 43 29
        E 12 b0 4a 72
        E 13 a0 43 27
        E 12 b0 4a 71
        E 13 a0 43 25
        E 12 e0 18 40
        E 1 b0 4a 70
        E 11 a0 43 21
        E 4 e0 00 40
        E 2 b0 4a 05
        E 1 a0 44 00
        E 1 90 44 1e
        E 8 a0 43 1f
        E 16 b0 4a 01
        E 2 a0 44 0d
        E 9 a0 43 19
        E 3 b0 4a 00
        E 13 a0 44 17
        E 9 a0 43 00
        E 6 80 43 17
        E 5 e0 00 40
        E 5 a0 44 21
        E 24 a0 44 28
        E 24 a0 44 2c
        E 24 a0 44 31
        E 24 a0 44 33
        E 24 a0 44 34
        E 23 a0 44 35
        E 24 a0 44 37
        E 23 a0 44 3a
        E 24 a0 44 3d
        E 24 a0 44 40
        E 23 a0 44 41
        E 35 a0 44 42
        E 23 a0 44 40
        E 23 b0 4a 01
        E 2 a0 44 3e
        E 23 b0 4a 02
        E 1 a0 44 38
        E 22 b0 4a 06
        E 2 a0 44 31
        E 22 b0 4a 0a
        E 2 a0 44 2f
        E 22 b0 4a 0b
        E 1 a0 44 30
        E 23 b0 4a 0c
        E 1 a0 44 32
        E 22 b0 4a 0d
        E 12 a0 44 31
        E 12 b0 4a 0e
        E 13 a0 44 2f
        E 12 b0 4a 10
        E 11 a0 44 2d
        E 12 b0 4a 13
        E 24 b0 4a 15
        E 1 a0 44 2e
        E 22 b0 4a 16
        E 2 a0 44 30
        E 22 b0 4a 18
        E 2 a0 44 31
        E 22 b0 4a 1c
        E 2 a0 44 32
        E 22 b0 4a 1e
        E 2 a0 44 31
        E 22 b0 4a 1f
        E 2 a0 44 2e
        E 19 e0 00 40
        E 1 b0 4a 49
        E 2 a0 46 00
        E 2 90 46 28
        E 5 a0 44 27
        E 18 b0 4a 45
        E 2 a0 46 0f
        E 4 a0 44 1e
        E 22 e0 68 3f
        E 1 b0 4a 41
        E 2 a0 46 15
        E 2 a0 44 14
        E 12 a0 44 00
        E 6 80 44 26
        E 5 e0 68 3f
        E 2 b0 4a 3e
        E 1 a0 46 1a
        E 20 b0 4a 3d
        E 2 a0 46 1e
        E 22 a0 46 23
        E 12 b0 4a 3c
        E 12 a0 46 27
        E 24 a0 46 2a
        E 12 b0 4a 3b
        E 12 a0 46 2b
        E 24 e0 00 40
        E 1 a0 46 2d
        E 22 a0 46 2f
        E 12 b0 4a 3c
        E 12 a0 46 30
        E 12 b0 4a 3d
        E 24 b0 4a 3e
        E 2 a0 46 2f
        E 22 b0 4a 3f
        E 35 b0 4a 41
        E 12 a0 46 30
        E 24 a0 46 31
        E 12 b0 4a 42
        E 12 a0 46 32
        E 23 a0 46 33
        E 12 b0 4a 44
        E 24 a0 46 34
        E 12 b0 4a 43
        E 11 a0 46 35
        E 13 b0 4a 44
        E 11 a0 46 34
        E 12 b0 4a 41
        E 24 b0 4a 43
        E 24 b0 4a 44
        E 11 a0 46 33
        E 12 b0 4a 45
        E 59 b0 4a 47
        E 12 a0 46 32
        E 12 b0 4a 46
        E 12 a0 46 31
        E 24 b0 4a 48
        E 2 a0 46 2d
        E 23 b0 4a 49
        E 1 a0 46 2b
        E 7 e0 00 40
        E 1 b0 4a 41
        E 2 a0 47 00
        E 2 90 47 1b
        E 5 a0 46 27
        E 17 b0 4a 47
        E 2 a0 47 0e
        E 5 a0 46 21
        E 21 b0 4a 4d
        E 1 a0 47 1d
        E 6 a0 46 1a
        E 20 b0 4a 4f
        E 1 a0 47 28
        E 5 a0 46 11
        E 21 a0 47 2f
        E 6 a0 46 09
        E 7 b0 4a 51
        E 5 a0 46 00
        E 5 80 46 0c
        E 6 e0 00 40
        E 2 a0 47 37
        E 6 b0 4a 53
        E 12 a0 47 3f
        E 12 b0 4a 55
        E 11 a0 47 44
        E 12 b0 4a 57
        E 11 a0 47 47
        E 12 b0 4a 56
        E 12 a0 47 4b
        E 11 b0 4a 55
        E 11 a0 47 4e
        E 24 a0 47 50
        E 23 a0 47 51
        E 35 b0 4a 56
        E 2 a0 47 50
        E 33 a0 47 4e
        E 12 b0 4a 57
        E 11 a0 47 4d
        E 12 b0 4a 58
        E 11 a0 47 4c
        E 12 b0 4a 5a
        E 11 a0 47 4b
        E 12 b0 4a 5b
        E 23 a0 47 4a
        E 12 b0 4a 5c
        E 23 b0 4a 5d
        E 2 a0 47 49
        E 21 a0 47 48
        E 24 b0 4a 5e
        E 1 a0 47 46
        E 22 b0 4a 5f
        E 2 a0 47 44
        E 45 b0 4a 60
        E 23 b0 4a 61
        E 24 b0 4a 62
        E 11 a0 47 45
        E 24 a0 47 44
        E 12 b0 4a 61
        E 11 a0 47 40
        E 12 b0 4a 5f
        E 12 a0 47 3a
        E 13 b0 4a 5d
        E 12 a0 47 34
        E 12 b0 4a 5c
        E 12 a0 47 2e
        E 13 b0 4a 5a
        E 12 a0 47 27
        E 12 e0 00 40
        E 2 b0 4a 47
        E 1 a0 48 00
        E 2 90 48 1b
        E 12 a0 47 1f
        E 11 b0 4a 4f
        E 2 a0 48 0b
        E 14 a0 47 16
        E 11 b0 4a 55
        E 1 a0 48 14
        E 15 a0 47 0b
        E 11 b0 4a 56
        E 1 a0 48 1b
        E 14 a0 47 05
        E 12 b0 4a 57
        E 1 a0 48 22
        E 2 a0 47 00
        E 5 80 47 07
        E 5 e0 00 40
        E 12 b0 4a 58
        E 2 a0 48 28
        E 23 b0 4a 57
        E 1 a0 48 2a
        E 23 b0 4a 56
        E 2 a0 48 2b
        E 23 a0 48 2c
        E 36 b0 4a 57
        E 2 a0 48 2d
        E 22 b0 4a 55
        E 24 b0 4a 58
        E 2 a0 48 2c
        E 22 b0 4a 55
        E 12 a0 48 2d
        E 12 b0 4a 54
        E 24 b0 4a 55
        E 23 b0 4a 58
        E 24 b0 4a 5a
        E 2 a0 48 2e
        E 22 a0 48 30
        E 24 b0 4a 59
        E 1 a0 48 32
        E 22 b0 4a 57
        E 2 a0 48 34
        E 22 a0 48 36
        E 12 b0 4a 58
        E 24 b0 4a 5a
        E 11 a0 48 35
        E 12 b0 4a 5c
        E 12 a0 48 34
        E 12 b0 4a 5e
        E 36 b0 4a 5f
        E 23 a0 48 35
        E 12 b0 4a 60
        E 24 b0 4a 61
        E 23 b0 4a 62
        E 24 b0 4a 65
        E 2 a0 48 34
        E 34 b0 4a 64
        E 12 a0 48 33
        E 12 b0 4a 65
        E 24 b0 4a 62
        E 1 a0 48 2f
        E 23 b0 4a 5d
        E 2 a0 48 27
        E 23 b0 4a 5b
        E 2 a0 48 1e
        E 23 b0 4a 5d
        E 2 a0 48 18
        E 14 e0 00 40
        E 2 b0 4a 07
        E 2 a0 49 00
        E 1 90 49 20
        E 7 a0 48 0f
        E 16 b0 4a 09
        E 2 a0 49 08
        E 8 a0 48 0b
        E 12 a0 48 00
        E 6 80 48 09
        E 5 e0 00 40
        E 2 b0 4a 0b
        E 1 a0 49 0f
        E 15 b0 4a 08
        E 1 a0 49 1a
        E 23 a0 49 1e
        E 25 a0 49 21
        E 11 b0 4a 09
        E 13 a0 49 24
        E 23 a0 49 25
        E 12 b0 4a 08
        E 25 b0 4a 06
        E 35 b0 4a 07
        E 2 a0 49 26
        E 22 a0 49 27
        E 24 a0 49 29
        E 24 b0 4a 06
        E 1 a0 49 2b
        E 23 b0 4a 08
        E 1 a0 49 2d
        E 23 b0 4a 09
        E 1 a0 49 2c
        E 23 b0 4a 0a
        E 24 b0 4a 09
        E 35 a0 49 2d
        E 36 a0 49 2e
        E 24 b0 4a 08
        E 1 a0 49 2f
        E 22 a0 49 30
        E 24 a0 49 31
        E 23 a0 49 32
        E 37 a0 49 33
        E 23 b0 4a 07
        E 12 a0 49 32
        E 24 b0 4a 08
        E 1 a0 49 31
        E 23 b0 4a 07
        E 47 a0 49 32
        E 24 b0 4a 08
        E 24 a0 49 33
        E 35 a0 49 34
        E 71 b0 4a 09
        E 24 b0 4a 07
        E 24 b0 4a 06
        E 1 a0 49 33
        E 34 b0 4a 07
        E 2 a0 49 32
        E 22 a0 49 30
        E 12 b0 4a 06
        E 24 b0 4a 07
        E 24 a0 49 31
        E 12 b0 4a 08
        E 11 a0 49 33
        E 24 a0 49 34
        E 24 a0 49 35
        E 47 b0 4a 06
        E 12 a0 49 34
        E 12 b0 4a 08
        E 24 b0 4a 07
        E 11 a0 49 33
        E 24 a0 49 32
        E 36 b0 4a 08
        E 12 a0 49 33
        E 23 b0 4a 09
        E 24 b0 4a 0b
        E 2 a0 49 34
        E 34 a0 49 32
        E 12 b0 4a 0c
        E 12 a0 49 2c
        E 12 b0 4a 11
        E 12 a0 49 1b
        E 11 a0 49 00
        E 5 80 49 36
        E 1457 b0 7b 00
        GUID {CED2843B-DEF0-E74D-8907-E783D3506346}
        IGNTEMPO 0 120 4 4
        SRCCOLOR 168
      >
    >
    <ITEM
      POSITION 9
      SNAPOFFS 0
      LENGTH 7.859375
      LOOP 1
      ALLTAKES 0
      FADEIN 1 0 0 1 0 0
      FADEOUT 1 0 0 1 0 0
      MUTE 0
      SEL 0
      IGUID {5D4C4A44-0DE4-AE4C-9859-5993AD0EB960}
      IID 11
      NAME "01-Sax Linnstrument-Recorded MIDI"
      VOLPAN 1 0 1 -1
      SOFFS 0 0
      PLAYRATE 1 1 0 -1 0 0.0025
      CHANMODE 0
      GUID {EE3CDAC7-5AF8-6546-8DA8-7D66ED2D1E93}
      RECPASS 7
      <SOURCE MIDI
        HASDATA 1 960 QN
        POOLEDEVTS {B28836B5-E1B2-9846-B24E-AD68C9489011}
        E 3937 e1 00 40
        E 1 b1 4a 40
        E 2 a1 3c 00
        E 2 91 3c 21
        E 20 b1 4a 44
        E 2 a1 3c 12
        E 10 e1 18 40
        E 12 b1 4a 48
        E 2 a1 3c 1d
        E 22 b1 4a 4a
        E 1 a1 3c 24
        E 23 b1 4a 4b
        E 1 a1 3c 2c
        E 23 b1 4a 4c
        E 1 a1 3c 34
        E 11 e1 00 40
        E 11 b1 4a 4e
        E 2 a1 3c 3b
        E 22 b1 4a 4f
        E 1 a1 3c 40
        E 22 b1 4a 51
        E 2 a1 3c 45
        E 22 e1 68 3f
        E 1 b1 4a 50
        E 1 a1 3c 4a
        E 21 b1 4a 4f
        E 1 a1 3c 4e
        E 10 e1 00 40
        E 12 b1 4a 4e
        E 2 a1 3c 4f
        E 22 b1 4a 4d
        E 1 a1 3c 4d
        E 22 b1 4a 4b
        E 1 a1 3c 4a
        E 22 a1 3c 48
        E 12 b1 4a 4c
        E 35 b1 4a 4d
        E 1 a1 3c 49
        E 22 b1 4a 4e
        E 2 a1 3c 4a
        E 22 b1 4a 4f
        E 23 b1 4a 4e
        E 35 b1 4a 4d
        E 1 a1 3c 49
        E 22 b1 4a 4c
        E 2 a1 3c 47
        E 22 a1 3c 45
        E 24 a1 3c 43
        E 34 b1 4a 4d
        E 24 b1 4a 4e
        E 11 a1 3c 42
        E 24 b1 4a 4f
        E 12 a1 3c 41
        E 11 b1 4a 4e
        E 12 a1 3c 40
        E 12 b1 4a 50
        E 12 a1 3c 3e
        E 6 e2 00 40
        E 2 b2 4a 59
        E 1 a2 3d 00
        E 2 92 3d 2a
        E 5 a1 3c 3c
        E 19 b2 4a 5c
        E 1 a2 3d 0f
        E 6 b1 4a 4e
        E 1 a1 3c 33
        E 18 b2 4a 61
        E 2 a2 3d 21
        E 6 b1 4a 46
        E 1 a1 3c 26
        E 18 b2 4a 68
        E 2 a2 3d 2c
        E 6 e1 68 3f
        E 1 b1 4a 42
        E 2 a1 3c 19
        E 16 b2 4a 6c
        E 1 a2 3d 37
        E 6 a1 3c 00
        E 5 81 3c 22
        E 12 b2 4a 6e
        E 2 a2 3d 3e
        E 22 a2 3d 47
        E 11 b2 4a 6d
        E 12 a2 3d 4d
        E 12 b2 4a 6e
        E 11 a2 3d 4f
        E 12 b2 4a 6f
        E 11 a2 3d 52
        E 24 a2 3d 54
        E 46 b2 4a 6e
        E 12 a2 3d 53
        E 23 a2 3d 52
        E 11 b2 4a 6f
        E 12 a2 3d 51
        E 23 b2 4a 6e
        E 23 b2 4a 6f
        E 2 a2 3d 50
        E 45 b2 4a 70
        E 23 a2 3d 51
        E 11 b2 4a 6f
        E 35 b2 4a 6e
        E 12 a2 3d 50
        E 23 b2 4a 6d
        E 2 a2 3d 4f
        E 21 a2 3d 4d
        E 24 a2 3d 4c
        E 23 a2 3d 4a
        E 23 b2 4a 6e
        E 2 a2 3d 49
        E 22 a2 3d 48
        E 12 b2 4a 6f
        E 12 e3 00 40
        E 2 b3 4a 62
        E 1 a3 3e 00
        E 2 93 3e 31
        E 5 a2 3d 47
        E 18 b3 4a 60
        E 1 a3 3e 1a
        E 2 b2 4a 6d
        E 2 a2 3d 43
        E 22 b3 4a 5d
        E 1 a3 3e 27
        E 2 b2 4a 69
        E 1 a2 3d 3a
        E 22 b3 4a 5b
        E 1 a3 3e 30
        E 2 b2 4a 65
        E 2 a2 3d 2f
        E 22 a3 3e 37
        E 2 b2 4a 60
        E 2 a2 3d 25
        E 23 a3 3e 3c
        E 2 b2 4a 5c
        E 1 a2 3d 1e
        E 10 b3 4a 5c
        E 13 a3 3e 41
        E 2 a2 3d 18
        E 12 b3 4a 5b
        E 2 b2 4a 5b
        E 11 a3 3e 45
        E 2 a2 3d 15
        E 11 b3 4a 5f
        E 2 b2 4a 5a
        E 11 a3 3e 4a
        E 2 a2 3d 11
        E 11 b3 4a 62
        E 14 a3 3e 4e
        E 2 a2 3d 0f
        E 24 b3 4a 63
        E 1 a3 3e 50
        E 2 b2 4a 5c
        E 1 a2 3d 0b
        E 11 a2 3d 00
        E 4 82 3d 29
        E 6 b3 4a 65
        E 2 a3 3e 51
        E 21 a3 3e 4f
        E 35 b3 4a 66
        E 35 b3 4a 67
        E 23 b3 4a 68
        E 12 a3 3e 4e
        E 11 b3 4a 69
        E 24 b3 4a 6b
        E 11 a3 3e 4d
        E 24 b3 4a 6c
        E 1 a3 3e 4c
        E 22 a3 3e 4a
        E 11 b3 4a 6d
        E 12 a3 3e 49
        E 12 b3 4a 6e
        E 11 a3 3e 4a
        E 47 b3 4a 6f
        E 35 a3 3e 4b
        E 23 b3 4a 70
        E 1 a3 3e 4a
        E 22 b3 4a 71
        E 2 a3 3e 46
        E 2 e4 00 40
        E 1 b4 4a 20
        E 2 a4 3f 00
        E 2 94 3f 21
        E 7 b3 4a 72
        E 1 a3 3e 45
        E 23 b3 4a 6e
        E 2 a3 3e 3d
        E 1 b4 4a 22
        E 2 a4 3f 03
        E 22 b3 4a 6b
        E 2 a3 3e 32
        E 1 b4 4a 20
        E 2 a4 3f 08
        E 22 e3 18 40
        E 2 a3 3e 2b
        E 1 b4 4a 22
        E 2 a4 3f 0e
        E 9 b3 4a 6c
        E 13 a3 3e 25
        E 3 b4 4a 24
        E 2 a4 3f 13
        E 8 e3 30 40
        E 3 b3 4a 6e
        E 12 a3 3e 1e
        E 3 b4 4a 26
        E 1 a4 3f 19
        E 9 b3 4a 6f
        E 13 a3 3e 13
        E 4 b4 4a 29
        E 1 a4 3f 1f
        E 8 a3 3e 00
        E 6 83 3e 19
        E 10 b4 4a 2a
        E 1 a4 3f 27
        E 23 a4 3f 2b
        E 24 a4 3f 2e
        E 12 b4 4a 2b
        E 12 e4 18 40
        E 1 a4 3f 30
        E 10 b4 4a 2c
        E 12 a4 3f 31
        E 13 e4 30 40
        E 11 b4 4a 2d
        E 2 a4 3f 32
        E 10 e4 18 40
        E 12 b4 4a 2f
        E 2 a4 3f 31
        E 22 b4 4a 33
        E 24 e4 00 40
        E 1 b4 4a 35
        E 11 a4 3f 32
        E 11 b4 4a 39
        E 12 a4 3f 33
        E 12 b4 4a 3b
        E 12 a4 3f 36
        E 12 b4 4a 3e
        E 11 a4 3f 38
        E 12 b4 4a 41
        E 12 a4 3f 3b
        E 12 b4 4a 43
        E 12 a4 3f 3c
        E 11 b4 4a 45
        E 12 a4 3f 3a
        E 12 b4 4a 46
        E 12 a4 3f 39
        E 11 b4 4a 48
        E 12 a4 3f 38
        E 12 b4 4a 4b
        E 12 a4 3f 37
        E 12 b4 4a 4e
        E 23 b4 4a 51
        E 2 a4 3f 38
        E 22 b4 4a 53
        E 2 a4 3f 39
        E 22 b4 4a 55
        E 1 a4 3f 3a
        E 22 b4 4a 57
        E 35 b4 4a 56
        E 2 a4 3f 39
        E 23 b4 4a 55
        E 2 a4 3f 35
        E 6 e5 00 40
        E 2 b5 4a 31
        E 2 a5 41 00
        E 1 95 41 1f
        E 16 b4 4a 53
        E 1 a4 3f 2b
        E 7 b5 4a 30
        E 2 a5 41 0d
        E 17 b4 4a 51
        E 1 a4 3f 1c
        E 7 b5 4a 34
        E 2 a5 41 14
        E 17 b4 4a 55
        E 1 a4 3f 0e
        E 7 b5 4a 35
        E 2 a5 41 1b
        E 16 a4 3f 00
        E 6 84 3f 1b
        E 5 b5 4a 36
        E 1 a5 41 20
        E 21 b5 4a 37
        E 2 a5 41 26
        E 22 b5 4a 39
        E 2 a5 41 2d
        E 22 b5 4a 3a
        E 1 a5 41 30
        E 23 b5 4a 3c
        E 1 a5 41 34
        E 22 b5 4a 3e
        E 24 a5 41 36
        E 12 b5 4a 3f
        E 12 a5 41 38
        E 11 b5 4a 40
        E 12 a5 41 3a
        E 24 a5 41 3b
        E 11 b5 4a 3f
        E 12 a5 41 3a
        E 12 b5 4a 41
        E 12 a5 41 3b
        E 12 b5 4a 3e
        E 12 a5 41 38
        E 12 b5 4a 3d
        E 11 a5 41 36
        E 24 a5 41 35
        E 12 b5 4a 3e
        E 23 a5 41 34
        E 12 b5 4a 3f
        E 12 a5 41 35
        E 12 b5 4a 41
        E 12 a5 41 37
        E 24 b5 4a 42
        E 1 a5 41 38
        E 22 a5 41 36
        E 24 a5 41 37
        E 12 b5 4a 43
        E 12 a5 41 35
        E 12 b5 4a 44
        E 12 a5 41 34
        E 12 b5 4a 46
        E 11 a5 41 33
        E 12 b5 4a 48
        E 13 a5 41 2f
        E 12 b5 4a 49
        E 12 a5 41 1f
        E 7 e6 00 40
        E 2 b6 4a 58
        E 2 a6 42 00
        E 1 96 42 30
        E 6 b5 4a 45
        E 1 a5 41 17
        E 17 b6 4a 5f
        E 2 a6 42 16
        E 4 a5 41 0e
        E 13 a5 41 00
        E 5 85 41 0f
        E 6 b6 4a 66
        E 2 a6 42 1e
        E 19 b6 4a 6a
        E 1 a6 42 28
        E 23 b6 4a 6c
        E 2 a6 42 2d
        E 23 b6 4a 6d
        E 1 a6 42 36
        E 22 b6 4a 6c
        E 2 a6 42 3a
        E 21 a6 42 3d
        E 24 b6 4a 6b
        E 2 a6 42 3f
        E 22 a6 42 41
        E 12 b6 4a 6a
        E 23 b6 4a 6b
        E 35 b6 4a 6c
        E 12 a6 42 40
        E 12 b6 4a 6b
        E 23 b6 4a 6c
        E 47 b6 4a 6d
        E 1 a6 42 3f
        E 34 b6 4a 6e
        E 2 a6 42 40
        E 22 b6 4a 6f
        E 1 a6 42 3f
        E 22 a6 42 3e
        E 24 a6 42 3c
        E 23 b6 4a 70
        E 2 a6 42 39
        E 22 a6 42 36
        E 12 b6 4a 71
        E 12 a6 42 33
        E 12 b6 4a 72
        E 12 a6 42 30
        E 23 b6 4a 73
        E 2 a6 42 31
        E 22 b6 4a 74
        E 2 a6 42 32
        E 22 b6 4a 73
        E 2 a6 42 31
        E 22 b6 4a 71
        E 2 a6 42 30
        E 23 b6 4a 72
        E 2 a6 42 2f
        E 23 e7 00 40
        E 1 b7 4a 69
        E 1 a7 43 00
        E 2 97 43 21
        E 6 b6 4a 70
        E 1 a6 42 2a
        E 17 b7 4a 66
        E 2 a7 43 0a
        E 1 b6 4a 6b
        E 2 a6 42 22
        E 22 a7 43 13
        E 2 b6 4a 69
        E 2 a6 42 19
        E 11 e6 18 40
        E 12 a7 43 19
        E 2 a6 42 11
        E 24 b7 4a 68
        E 2 a7 43 1f
        E 1 a6 42 00
        E 5 86 42 11
        E 17 b7 4a 6b
        E 2 a7 43 26
        E 22 b7 4a 6d
        E 2 a7 43 2c
        E 22 b7 4a 72
        E 1 a7 43 2f
        E 22 b7 4a 74
        E 2 a7 43 32
        E 22 b7 4a 75
        E 2 a7 43 34
        E 22 b7 4a 78
        E 2 a7 43 37
        E 22 b7 4a 7a
        E 1 a7 43 39
        E 22 b7 4a 7c
        E 2 a7 43 3a
        E 22 b7 4a 7d
        E 35 a7 43 39
        E 12 b7 4a 7e
        E 12 a7 43 37
        E 23 a7 43 36
        E 24 a7 43 37
        E 24 a7 43 38
        E 24 b7 4a 7f
        E 12 a7 43 39
        E 47 a7 43 3a
        E 23 a7 43 3b
        E 23 a7 43 3d
        E 36 a7 43 3c
        E 23 a7 43 39
        E 24 a7 43 3a
        E 36 a7 43 37
        E 25 a7 43 32
        E 24 a7 43 2c
        E 4 e1 00 40
        E 2 b1 4a 2e
        E 1 a1 44 00
        E 2 91 44 1a
        E 7 a7 43 27
        E 16 b1 4a 31
        E 2 a1 44 06
        E 9 a7 43 20
        E 13 b7 4a 7e
        E 4 b1 4a 34
        E 1 a1 44 0b
        E 9 a7 43 15
        E 3 e1 18 40
        E 10 a7 43 00
        E 5 87 43 22
        E 6 a1 44 13
        E 4 b1 4a 36
        E 13 a1 44 19
        E 11 e1 30 40
        E 3 b1 4a 3a
        E 10 a1 44 20
        E 13 e1 48 40
        E 1 b1 4a 3b
        E 11 a1 44 23
        E 11 e1 60 40
        E 13 b1 4a 3c
        E 1 a1 44 26
        E 10 e1 78 40
        E 13 a1 44 28
        E 12 e1 60 40
        E 1 b1 4a 3d
        E 11 a1 44 2b
        E 11 e1 48 40
        E 2 b1 4a 41
        E 11 a1 44 2d
        E 11 b1 4a 47
        E 12 e1 30 40
        E 2 a1 44 30
        E 10 b1 4a 4b
        E 12 a1 44 32
        E 12 e1 18 40
        E 12 b1 4a 4c
        E 2 a1 44 34
        E 10 e1 00 40
        E 11 b1 4a 4e
        E 25 b1 4a 4f
        E 35 b1 4a 50
        E 12 a1 44 33
        E 12 b1 4a 51
        E 23 b1 4a 54
        E 2 a1 44 34
        E 22 b1 4a 57
        E 1 a1 44 35
        E 23 b1 4a 59
        E 1 a1 44 37
        E 23 b1 4a 5d
        E 1 a1 44 3a
        E 22 b1 4a 61
        E 1 a1 44 3c
        E 23 b1 4a 62
        E 11 a1 44 3b
        E 36 b1 4a 64
        E 23 b1 4a 67
        E 24 b1 4a 68
        E 24 b1 4a 69
        E 1 a1 44 3a
        E 19 e2 00 40
        E 2 b2 4a 20
        E 2 a2 46 00
        E 1 92 46 1c
        E 5 b1 4a 6a
        E 2 a1 44 35
        E 17 b2 4a 27
        E 1 a2 46 0b
        E 4 a1 44 2d
        E 14 b1 4a 6b
        E 8 b2 4a 2d
        E 2 a2 46 14
        E 3 a1 44 20
        E 14 b1 4a 6a
        E 8 b2 4a 2e
        E 2 a2 46 1c
        E 3 a1 44 13
        E 22 b2 4a 2d
        E 2 a2 46 23
        E 3 a1 44 00
        E 5 81 44 1d
        E 15 e2 68 3f
        E 2 b2 4a 2a
        E 2 a2 46 2a
        E 21 b2 4a 29
        E 1 a2 46 30
        E 22 e2 00 40
        E 2 b2 4a 28
        E 1 a2 46 35
        E 21 b2 4a 29
        E 2 a2 46 3a
        E 21 b2 4a 2a
        E 2 a2 46 3d
        E 22 a2 46 3e
        E 11 b2 4a 29
        E 12 a2 46 3f
        E 24 a2 46 40
        E 11 b2 4a 2a
        E 12 a2 46 3f
        E 24 b2 4a 2b
        E 1 a2 46 40
        E 22 b2 4a 2c
        E 59 b2 4a 2d
        E 23 b2 4a 2c
        E 1 a2 46 3f
        E 22 b2 4a 2d
        E 2 a2 46 40
        E 22 b2 4a 2e
        E 1 a2 46 3f
        E 22 b2 4a 2f
        E 36 a2 46 3e
        E 35 b2 4a 30
        E 24 b2 4a 2f
        E 11 a2 46 3d
        E 12 b2 4a 30
        E 24 b2 4a 31
        E 1 a2 46 3b
        E 23 b2 4a 34
        E 1 a2 46 36
        E 23 b2 4a 36
        E 2 a2 46 2e
        E 6 e3 00 40
        E 2 b3 4a 3d
        E 1 a3 47 00
        E 2 93 47 27
        E 5 b2 4a 38
        E 2 a2 46 2a
        E 10 e2 18 40
        E 7 b3 4a 3a
        E 1 a3 47 11
        E 6 b2 4a 3c
        E 1 a2 46 24
        E 12 e2 30 40
        E 7 b3 4a 41
        E 1 a3 47 1c
        E 6 b2 4a 3f
        E 1 a2 46 1e
        E 12 e2 48 40
        E 7 e3 68 3f
        E 1 b3 4a 44
        E 2 a3 47 27
        E 4 b2 4a 43
        E 1 a2 46 15
        E 6 e3 00 40
        E 13 b3 4a 47
        E 1 a3 47 32
        E 4 a2 46 00
        E 6 82 46 1e
        E 13 b3 4a 49
        E 2 a3 47 3e
        E 22 b3 4a 4c
        E 2 a3 47 43
        E 21 b3 4a 50
        E 1 a3 47 49
        E 22 b3 4a 52
        E 2 a3 47 4e
        E 21 a3 47 52
        E 24 b3 4a 53
        E 1 a3 47 54
        E 22 a3 47 55
        E 12 b3 4a 52
        E 23 b3 4a 51
        E 11 a3 47 54
        E 23 b3 4a 50
        E 2 a3 47 52
        E 21 b3 4a 51
        E 2 a3 47 51
        E 22 a3 47 50
        E 11 b3 4a 50
        E 47 a3 47 4f
        E 23 a3 47 4e
        E 11 b3 4a 4f
        E 12 a3 47 4b
        E 23 a3 47 47
        E 12 b3 4a 4e
        E 12 a3 47 45
        E 11 b3 4a 4f
        E 12 a3 47 46
        E 12 b3 4a 51
        E 23 b3 4a 53
        E 23 a3 47 47
        E 12 b3 4a 54
        E 23 b3 4a 53
        E 2 a3 47 46
        E 22 b3 4a 54
        E 1 a3 47 43
        E 23 b3 4a 53
        E 1 a3 47 3d
        E 24 a3 47 37
        E 12 e4 00 40
        E 1 b4 4a 36
        E 2 a4 48 00
        E 1 94 48 21
        E 6 b3 4a 54
        E 1 a3 47 33
        E 17 b4 4a 3e
        E 2 a4 48 10
        E 1 e3 18 40
        E 2 b3 4a 56
        E 2 a3 47 29
        E 20 b4 4a 3c
        E 2 a4 48 16
        E 1 e3 30 40
        E 2 b3 4a 55
        E 2 a3 47 20
        E 21 b4 4a 40
        E 1 a4 48 1b
        E 1 e3 48 40
        E 2 b3 4a 54
        E 2 a3 47 17
        E 21 b4 4a 42
        E 1 a4 48 21
        E 2 e3 78 40
        E 1 b3 4a 4d
        E 2 a3 47 0f
        E 20 b4 4a 43
        E 2 a4 48 27
        E 1 a3 47 00
        E 6 83 47 11
        E 16 b4 4a 44
        E 2 a4 48 2d
        E 23 b4 4a 45
        E 2 a4 48 31
        E 22 b4 4a 44
        E 13 a4 48 30
        E 23 b4 4a 43
        E 24 b4 4a 42
        E 2 a4 48 31
        E 22 b4 4a 43
        E 12 a4 48 32
        E 12 b4 4a 44
        E 12 a4 48 34
        E 12 b4 4a 45
        E 11 a4 48 36
        E 12 b4 4a 47
        E 12 a4 48 37
        E 12 b4 4a 48
        E 12 a4 48 39
        E 11 b4 4a 4a
        E 12 a4 48 3a
        E 12 b4 4a 4b
        E 24 b4 4a 4c
        E 23 b4 4a 4e
        E 2 a4 48 39
        E 22 b4 4a 4f
        E 2 a4 48 38
        E 22 b4 4a 50
        E 1 a4 48 37
        E 23 b4 4a 52
        E 1 a4 48 35
        E 23 b4 4a 51
        E 1 a4 48 34
        E 22 b4 4a 52
        E 2 a4 48 32
        E 23 a4 48 31
        E 11 b4 4a 53
        E 12 a4 48 30
        E 12 b4 4a 54
        E 12 a4 48 2f
        E 12 b4 4a 55
        E 12 a4 48 2d
        E 12 b4 4a 57
        E 12 a4 48 28
        E 12 e4 18 40
        E 2 b4 4a 58
        E 11 a4 48 25
        E 12 e4 30 40
        E 2 b4 4a 5a
        E 11 a4 48 1e
        E 12 e4 60 40
        E 2 b4 4a 59
        E 2 e5 00 40
        E 2 b5 4a 00
        E 1 a5 49 00
        E 2 95 49 1b
        E 6 a4 48 17
        E 16 a5 49 08
        E 25 a5 49 0d
        E 22 a4 48 00
        E 5 84 48 15
        E 5 a5 49 15
        E 17 a5 49 1d
        E 24 a5 49 23
        E 24 a5 49 25
        E 24 a5 49 26
        E 24 a5 49 28
        E 23 a5 49 2b
        E 24 a5 49 30
        E 24 a5 49 32
        E 24 a5 49 31
        E 23 a5 49 30
        E 84 a5 49 31
        E 35 a5 49 32
        E 35 a5 49 31
        E 131 a5 49 32
        E 190 a5 49 31
        E 23 a5 49 30
        E 24 a5 49 2f
        E 36 a5 49 30
        E 23 a5 49 31
        E 24 a5 49 32
        E 83 a5 49 31
        E 24 a5 49 30
        E 83 a5 49 31
        E 23 a5 49 32
        E 24 a5 49 33
        E 24 a5 49 34
        E 59 a5 49 33
        E 24 a5 49 32
        E 47 a5 49 33
        E 24 a5 49 34
        E 23 a5 49 35
        E 83 a5 49 36
        E 24 a5 49 37
        E 23 a5 49 39
        E 24 a5 49 3b
        E 23 a5 49 3c
        E 36 a5 49 3b
        E 22 a5 49 39
        E 25 a5 49 32
        E 24 a5 49 1a
        E 11 a5 49 00
        E 5 85 49 43
        E 1440 b0 7b 00
        GUID {8656B0F9-57A7-F942-AB98-A2ECD3627F17}
        IGNTEMPO 0 120 4 4
        SRCCOLOR 171
      >
    >
  >
  <TRACK {081EC1B5-F772-2E4A-B163-84CAF1548887}
    NAME ""
    PEAKCOL 16576
    BEAT -1
    AUTOMODE 0
    VOLPAN 1 0 -1 -1 1
    MUTESOLO 0 0 0
    IPHASE 0
    ISBUS 0 0
    BUSCOMP 0 0
    SHOWINMIX 1 0.6667 0.5 1 0.5 0 0 0
    FREEMODE 0
    SEL 0
    REC 0 0 0 0 0 0 0
    VU 2
    TRACKHEIGHT 0 0
    INQ 0 0 0 0.5 100 0 0 100
    NCHAN 2
    FX 1
    TRACKID {081EC1B5-F772-2E4A-B163-84CAF1548887}
    PERF 0
    MIDIOUT -1
    MAINSEND 1 0
    <ITEM
      POSITION 0
      SNAPOFFS 0
      LENGTH 8.3281179138322
      LOOP 1
      ALLTAKES 0
      FADEIN 1 0.01 0 1 0 0
      FADEOUT 1 0.01 0 1 0 0
      MUTE 0
      SEL 0
      IGUID {2EF48C4F-A4B3-8843-86AA-D55361E05D15}
      IID 10
      NAME 02-180410_1900.wav
      VOLPAN 1 0 1 -1
      SOFFS 0
      PLAYRATE 1 1 0 -1 0 0.0025
      CHANMODE 0
      GUID {4908B61E-9614-0F4E-BD68-1AC4B4506916}
      RECPASS 6
      <SOURCE WAVE
        FILE "02-180410_1900.wav"
      >
    >
    <ITEM
      POSITION 9
      SNAPOFFS 0
      LENGTH 7.85791383219955
      LOOP 1
      ALLTAKES 0
      FADEIN 1 0.01 0 1 0 0
      FADEOUT 1 0.01 0 1 0 0
      MUTE 0
      SEL 0
      IGUID {9977F038-0FF6-4E40-A99B-1799E063D913}
      IID 12
      NAME 02-180410_1901.wav
      VOLPAN 1 0 1 -1
      SOFFS 0
      PLAYRATE 1 1 0 -1 0 0.0025
      CHANMODE 0
      GUID {C3BB8161-F21D-8245-A59F-49F67F52C4CC}
      RECPASS 7
      <SOURCE WAVE
        FILE "02-180410_1901.wav"
      >
    >
  >
  <TRACK {5721F656-3060-2D46-87AD-B2BD0EFEA42D}
    NAME "Sax Martin"
    PEAKCOL 16576
    BEAT -1
    AUTOMODE 0
    VOLPAN 1 0 -1 -1 1
    MUTESOLO 1 0 0
    IPHASE 0
    ISBUS 0 0
    BUSCOMP 0 0
    SHOWINMIX 1 0.6667 0.5 1 0.5 0 0 0
    FREEMODE 0
    SEL 0
    REC 1 5088 1 0 0 0 0
    VU 2
    TRACKHEIGHT 0 0
    INQ 0 0 0 0.5 100 0 0 100
    NCHAN 2
    FX 1
    TRACKID {5721F656-3060-2D46-87AD-B2BD0EFEA42D}
    PERF 0
    MIDIOUT -1
    MAINSEND 1 0
    <FXCHAIN
      WNDRECT 352 140 1025 676
      SHOW 0
      LASTSEL 0
      DOCKED 0
      BYPASS 0 0 0
      <AU "AUi: SWAM Tenor Sax (Audio Modeling)" "Audio Modeling: SWAM Tenor Sax" "" 1635085685 1398896724 1398227277
        6QMAAAAAAAAAAAAAAgAAAAEAAAAAAAAAAgAAAAAAAAAUKQAAPD94bWwgdmVyc2lvbj0iMS4wIiBlbmNvZGluZz0iVVRGLTgiPz4KPCFET0NUWVBFIHBsaXN0IFBVQkxJ
        QyAiLS8vQXBwbGUvL0RURCBQTElTVCAxLjAvL0VOIiAiaHR0cDovL3d3dy5hcHBsZS5jb20vRFREcy9Qcm9wZXJ0eUxpc3QtMS4wLmR0ZCI+CjxwbGlzdCB2ZXJzaW9u
        PSIxLjAiPgo8ZGljdD4KCTxrZXk+ZGF0YTwva2V5PgoJPGRhdGE+CglBQUFBQUFBQUFBQUFBQUNBQUFBQUFBQUFBQUFBQUFBQkFBQUFBQUFBQUFJQUFBQUFBQUFBQXdB
        QUFBQUFBQUFFQUFBQQoJQUFBQUFBVUFBQUFBQUFBQUJnQUFBQUFBQUFBSEFBQUFBQUFBQUFnQUFBQUFBQUFBQ1FBQUFBQUFBQUFLQUFBQUFBQUEKCUFBc0FBQUFBQUFB
        QURBQUFBQUFBQUFBTkFBQUFBQUFBQUE0QUFBQUFBQUFBRHdBQUFBQUFBQUFRQUFBQUFBQUFBQkVBCglBQUFBQUFBQUVnQUFBQUFBQUFBVEFBQUFBQUFBQUJRQUFBQUFB
        QUFBRlFBQUFBQUFBQUFXQUFBQUFBQUFBQmNBQUFBQQoJQUFBQUdBQUFBQUFBQUFBWkFBQUFBQUFBQUJvQUFBQUFBQUFBR3dBQUFBQUFBQUFjQUFBQUFBQUFBQjBBQUFB
        QUFBQUEKCUhnQUFBQUFBQUFBZkFBQUFBQUFBQUNBQUFBQUFBQUFBSVFBQUFBQUFBQUFpQUFBQUFBQUFBQ01BQUFBQUFBQUFKQUFBCglBQUFBQUFBbEFBQUFBQUFBQUNZ
        QUFBQUFBQUFBSndBQUFBQUFBQUFvQUFBQUFBQUFBQ2tBQUFBQUFBQUFLZ0FBQUFBQQoJQUFBckFBQUFBQUFBQUN3QUFBQUFBQUFBTFFBQUFBQUFBQUF1QUFBQUFBQUFB
        QzhBQUFBQUFBQUFNQUFBQUFBQUFBQXgKCUFBQUFBQUFBQURJQUFBQUFBQUFBTXdBQUFBQUFBQUEwQUFBQUFBQUFBRFVBQUFBQUFBQUFOZ0FBQUFBQUFBQTNBQUFBCglB
        QUFBQURnQUFBQUFBQUFBT1FBQUFBQUFBQUE2QUFBQUFBQUFBRHNBQUFBQUFBQUFQQUFBQUFBQUFBQTlBQUFBQUFBQQoJQUQ0QUFBQUFBQUFBUHdBQUFBQUFBQUJBQUFB
        QUFBQUFBRUVBQUFBQUFBQUFRZ0FBQUFBQUFBQkRBQUFBQUFBQUFFUUEKCUFBQUFBQUFBUlFBQUFBQUFBQUJHQUFBQUFBQUFBRWNBQUFBQUFBQUFTQUFBQUFBQUFBQkpB
        QUFBQUFBQUFFb0FBQUFBCglBQUFBU3dBQUFBQUFBQUJNQUFBQUFBQUFBRTBBQUFBQUFBQUFUZ0FBQUFBQUFBQlBBQUFBQUFBQUFGQUFBQUFBQUFBQQoJVVFBQUFBQUFB
        QUJTQUFBQUFBQUFBRk1BQUFBQUFBQUFWQUFBQUFBQUFBQlZBQUFBQUFBQUFGWUFBQUFBQUFBQVZ3QUEKCUFBQUFBQUJZQUFBQUFBQUFBRmtBQUFBQUFBQUFXZ0FBQUFB
        QUFBQmJBQUFBQUFBQUFGd0FBQUFBQUFBQVhRQUFBQUFBCglBQUJlQUFBQUFBQUFBRjhBQUFBQUFBQUFZQUFBQUFBQUFBQmhBQUFBQUFBQUFHSUFBQUFBQUFBQVl3QUFB
        QUFBQUFCawoJQUFBQUFBQUFBR1VBQUFBQUFBQUFaZ0FBQUFBQUFBQm5BQUFBQUFBQUFHZ0FBQUFBQUFBQWFRQUFBQUFBQUFCcUFBQUEKCUFBQUFBR3NBQUFBQUFBQUFi
        QUFBQUFBQUFBQnRBQUFBQUFBQUFHNEFBQUFBQUFBQWJ3QUFBQUFBQUFCd0FBQUFBQUFBCglBSEVBQUFBQUFBQUFjZ0FBQUFBQUFBQnpBQUFBQUFBQUFIUUFBQUFBQUFB
        QWRRQUFBQUFBQUFCMkFBQUFBQUFBQUhjQQoJQUFBQUFBQUFlQUFBQUFBQUFBQjVBQUFBQUFBQUFIb0FBQUFBQUFBQWV3QUFBQUFBQUFCOEFBQUFBQUFBQUgwQUFBQUEK
        CUFBQUFmZ0FBQUFBQUFBQi9BQUFBQUE9PQoJPC9kYXRhPgoJPGtleT5qdWNlUGx1Z2luU3RhdGU8L2tleT4KCTxkYXRhPgoJVmtNeUlXTVlBQUE4YzNkaGJTQjBlWEJs
        UFNKVFlYZ2lJSFpsY25OcGIyNDlJak1pUGp4a1lYUmxkR2x0WlNCMllXeDEKCVpUMGlWSFZsSUVGd2NpQXhNQ0F4T1Rvd016b3dNaUF5TURFNEppTXhNRHNpTHo0OGNI
        SnZaM0poYlNCMllXeDFaVDBpCglSWGh3Y2t4dmQxSnZkekVpUGp4d1lYSmhiU0J1WVcxbFBTSnRZV2x1Vm05c2RXMWxJaUJwYm1SbGVEMGlNQ0lnZG1GcwoJZFdVOUlq
        QXVOekEzTURrNU9UYzBJaTgrUEhCaGNtRnRJRzVoYldVOUluQmhibEJ2ZENJZ2FXNWtaWGc5SWpFaUlIWmgKCWJIVmxQU0l3TGpVaUx6NDhjR0Z5WVcwZ2JtRnRaVDBp
        YldGemRHVnlWSFZ1WlNJZ2FXNWtaWGc5SWpJaUlIWmhiSFZsCglQU0l3TGpRNE1qRTBNamcyTmlJdlBqeHdZWEpoYlNCdVlXMWxQU0p5WlhabGNtSk5hWGdpSUdsdVpH
        VjRQU0l6SWlCMgoJWVd4MVpUMGlNQ0l2UGp4d1lYSmhiU0J1WVcxbFBTSnlaWFpsY21KVWFXMWxJaUJwYm1SbGVEMGlOQ0lnZG1Gc2RXVTkKCUlqQXVOU0l2UGp4d1lY
        SmhiU0J1WVcxbFBTSjBjbUZ1YzNCdmMyVlFZWEpoYlNJZ2FXNWtaWGc5SWpVaUlIWmhiSFZsCglQU0l3TGpVaUx6NDhjR0Z5WVcwZ2JtRnRaVDBpY0dsMFkyaENaVzVr
        VlhBaUlHbHVaR1Y0UFNJMklpQjJZV3gxWlQwaQoJTUNJdlBqeHdZWEpoYlNCdVlXMWxQU0p3YVhSamFFSmxibVJFYjNkdUlpQnBibVJsZUQwaU55SWdkbUZzZFdVOUlq
        QWkKCUx6NDhjR0Z5WVcwZ2JtRnRaVDBpZG1saWNtRjBiMUpoZEdVaUlHbHVaR1Y0UFNJeE1DSWdkbUZzZFdVOUlqQXVNek0zCglORGs1T1RjMklpOCtQSEJoY21GdElH
        NWhiV1U5SW5admFXTmxRMjl0WWpGWFpYUWlJR2x1WkdWNFBTSXhNU0lnZG1GcwoJZFdVOUlqQXVOU0l2UGp4d1lYSmhiU0J1WVcxbFBTSnpkV0pvWVhKdFIyRnBiaUln
        YVc1a1pYZzlJakUwSWlCMllXeDEKCVpUMGlNQzR3T1RRME9EZ3hPRGcySWk4K1BIQmhjbUZ0SUc1aGJXVTlJbWR5YjNkc1IyRnBiaUlnYVc1a1pYZzlJakUxCglJaUIy
        WVd4MVpUMGlNQzR3TlRVeE1UZ3hNU0l2UGp4d1lYSmhiU0J1WVcxbFBTSm1iSFYwZEdWeVIyRnBiaUlnYVc1awoJWlhnOUlqRTJJaUIyWVd4MVpUMGlNQ0l2UGp4d1lY
        SmhiU0J1WVcxbFBTSkpVbk5sYkdWamRHVmtJaUJwYm1SbGVEMGkKCU1UY2lJSFpoYkhWbFBTSXdJaTgrUEhCaGNtRnRJRzVoYldVOUluSmhibVJ2YlVSNWJtRnRhV01p
        SUdsdVpHVjRQU0l4CglPQ0lnZG1Gc2RXVTlJakF1TWpjeU56STNNamd4SWk4K1BIQmhjbUZ0SUc1aGJXVTlJbVI1Ym1GdGFXTlFhWFJqYUNJZwoJYVc1a1pYZzlJakU1
        SWlCMllXeDFaVDBpTUM0eU16WXlNakEwTnpraUx6NDhjR0Z5WVcwZ2JtRnRaVDBpWVhSMFlXTnIKCVZIbHdaU0lnYVc1a1pYZzlJakl3SWlCMllXeDFaVDBpTUNJdlBq
        eHdZWEpoYlNCdVlXMWxQU0p5Wld4VWFXMWxJaUJwCglibVJsZUQwaU1qRWlJSFpoYkhWbFBTSXdJaTgrUEhCaGNtRnRJRzVoYldVOUltWnZjbTFoYm5RaUlHbHVaR1Y0
        UFNJeQoJTWlJZ2RtRnNkV1U5SWpBdU1EazVPVGs1TnpreU9TSXZQanh3WVhKaGJTQnVZVzFsUFNKamIyMXdjbVZ6YzI5eUlpQnAKCWJtUmxlRDBpTWpNaUlIWmhiSFZs
        UFNJd0xqVWlMejQ4Y0dGeVlXMGdibUZ0WlQwaWJXOWtZV3hTWlhOSFlXbHVJaUJwCglibVJsZUQwaU1qUWlJSFpoYkhWbFBTSXdMalVpTHo0OGNHRnlZVzBnYm1GdFpU
        MGlZbkpsWVhSb1RtOXBjMlZIWVdsdQoJSWlCcGJtUmxlRDBpTWpVaUlIWmhiSFZsUFNJd0xqVXdNemt6TnpBd05pSXZQanh3WVhKaGJTQnVZVzFsUFNKclpYbE8KCWIy
        bHpaVWRoYVc0aUlHbHVaR1Y0UFNJeU5pSWdkbUZzZFdVOUlqQXVOVEF6T1RNM01EQTJJaTgrUEhCaGNtRnRJRzVoCgliV1U5SWtoaGNtMVVjbUZ1Y3lJZ2FXNWtaWGc5
        SWpJM0lpQjJZV3gxWlQwaU1DNDFNREF3TURBd05pSXZQanh3WVhKaAoJYlNCdVlXMWxQU0p3YjNKMFlXMWxiblJ2UTNSeWJDSWdhVzVrWlhnOUlqSTRJaUIyWVd4MVpU
        MGlNQ0l2UGp4d1lYSmgKCWJTQnVZVzFsUFNKeVlXMXdWR2x0WlNJZ2FXNWtaWGc5SWpJNUlpQjJZV3gxWlQwaU1DNDFJaTgrUEhCaGNtRnRJRzVoCgliV1U5SW0xaGVG
        QnZjblJwYldVaUlHbHVaR1Y0UFNJek1DSWdkbUZzZFdVOUlqQWlMejQ4Y0dGeVlXMGdibUZ0WlQwaQoJZG1Wc1VHOXlkRWRoYVc0aUlHbHVaR1Y0UFNJek1TSWdkbUZz
        ZFdVOUlqQXVOU0l2UGp4d1lYSmhiU0J1WVcxbFBTSmgKCWRYUnZSWGh3Y2xCdmNuUmhiU0lnYVc1a1pYZzlJak15SWlCMllXeDFaVDBpTUM0MUlpOCtQSEJoY21GdElH
        NWhiV1U5CglJblpwWW5KaGRHOVNZWFJsVW1GdVpDSWdhVzVrWlhnOUlqTXpJaUIyWVd4MVpUMGlNQzR6TURBd01EQXdNVElpTHo0OAoJY0dGeVlXMGdibUZ0WlQwaWIz
        WmxjbUpzYjNkVWFISmxjMmdpSUdsdVpHVjRQU0l6TkNJZ2RtRnNkV1U5SWpBdU5TSXYKCVBqeHdZWEpoYlNCdVlXMWxQU0psZUhCeVpYTnphVzl1VUdWa1lXeFVlWEJs
        SWlCcGJtUmxlRDBpTXpVaUlIWmhiSFZsCglQU0l3TGpNd01EQXdNREF4TWlJdlBqeHdZWEpoYlNCdVlXMWxQU0p3WVc1d2IzUlVlWEJsSWlCcGJtUmxlRDBpTXpZaQoJ
        SUhaaGJIVmxQU0l3SWk4K1BIQmhjbUZ0SUc1aGJXVTlJbU5vY205dFlYUnBZMDl1VDJabUlpQnBibVJsZUQwaU16Y2kKCUlIWmhiSFZsUFNJeElpOCtQSEJoY21GdElH
        NWhiV1U5SW5abGJFVjRjSEpQYms5bVppSWdhVzVrWlhnOUlqTTRJaUIyCglZV3gxWlQwaU1DSXZQanh3WVhKaGJTQnVZVzFsUFNKbGVIQnlaWE56YVc5dVEwTWlJR2x1
        WkdWNFBTSXpPU0lnZG1GcwoJZFdVOUlqQWlMejQ4Y0dGeVlXMGdibUZ0WlQwaWRtbGljbUYwYjBSbGNIUm9RME1pSUdsdVpHVjRQU0kwTUNJZ2RtRnMKCWRXVTlJakVp
        THo0OGNHRnlZVzBnYm1GdFpUMGlkbWxpY21GMGIxSmhkR1ZEUXlJZ2FXNWtaWGc5SWpReElpQjJZV3gxCglaVDBpTUM0eE5EQTJNalVpTHo0OGNHRnlZVzBnYm1GdFpU
        MGljRzl5ZEdGdFpXNTBiMVJwYldWRFF5SWdhVzVrWlhnOQoJSWpReUlpQjJZV3gxWlQwaU1DNHdNekV5TlNJdlBqeHdZWEpoYlNCdVlXMWxQU0pvWVhKdGIyNXBZMU4w
        Y25WamRIVnkKCVpVTkRJaUJwYm1SbGVEMGlORE1pSUhaaGJIVmxQU0l3TGpFM09UWTROelVpTHo0OGNHRnlZVzBnYm1GdFpUMGljM1ZpCglTR0Z5Ylc5dWFXTnpRME1p
        SUdsdVpHVjRQU0kwTkNJZ2RtRnNkV1U5SWpBdU1UUTRORE0zTlNJdlBqeHdZWEpoYlNCdQoJWVcxbFBTSm5jbTkzYkVORElpQnBibVJsZUQwaU5EVWlJSFpoYkhWbFBT
        SXdMakUxTmpJMUlpOCtQSEJoY21GdElHNWgKCWJXVTlJbVpzZFhSMFpYSlViMjVuZFdWRFF5SWdhVzVrWlhnOUlqUTJJaUIyWVd4MVpUMGlNQzR4TnpFNE56VWlMejQ4
        CgljR0Z5WVcwZ2JtRnRaVDBpWW5KbFlYUm9UbTlwYzJWRFF5SWdhVzVrWlhnOUlqUTNJaUIyWVd4MVpUMGlNQzR4T0RjMQoJSWk4K1BIQmhjbUZ0SUc1aGJXVTlJbXRs
        ZVU1dmFYTmxRME1pSUdsdVpHVjRQU0kwT0NJZ2RtRnNkV1U5SWpBdU1EWXkKCU5TSXZQanh3WVhKaGJTQnVZVzFsUFNKdmRtVnlZbXh2ZDFOM2FYUmphRU5ESWlCcGJt
        UmxlRDBpTkRraUlIWmhiSFZsCglQU0l3TGpRNU1qRTROelVpTHo0OGNHRnlZVzBnYm1GdFpUMGlabUZzYkdSdmQyNVRkMmwwWTJoRFF5SWdhVzVrWlhnOQoJSWpVd0lp
        QjJZV3gxWlQwaU1TSXZQanh3WVhKaGJTQnVZVzFsUFNKRWVXNWhiV2xqVUdsMFkyaERReUlnYVc1a1pYZzkKCUlqVXhJaUIyWVd4MVpUMGlNQzR3TlRRMk9EYzFJaTgr
        UEhCaGNtRnRJRzVoYldVOUltdHpUMk4wVkhKaGMzQWlJR2x1CglaR1Y0UFNJMU15SWdkbUZzZFdVOUlqQWlMejQ4Y0dGeVlXMGdibUZ0WlQwaWJXbGpjbTkwZFc1cGJt
        ZERReUlnYVc1awoJWlhnOUlqVTBJaUIyWVd4MVpUMGlNQzR5TXpRek56VWlMejQ4Y0dGeVlXMGdibUZ0WlQwaWJXbGpjbTkwZFc1cGJtY3cKCUlpQnBibVJsZUQwaU5U
        VWlJSFpoYkhWbFBTSXdMakE0TXpNek16TXpOVGdpTHo0OGNHRnlZVzBnYm1GdFpUMGliV2xqCgljbTkwZFc1cGJtY3hJaUJwYm1SbGVEMGlOVFlpSUhaaGJIVmxQU0l3
        TGpBNE16TXpNek16TlRnaUx6NDhjR0Z5WVcwZwoJYm1GdFpUMGliV2xqY205MGRXNXBibWN5SWlCcGJtUmxlRDBpTlRjaUlIWmhiSFZsUFNJd0xqQTRNek16TXpNek5U
        Z2kKCUx6NDhjR0Z5WVcwZ2JtRnRaVDBpYldsamNtOTBkVzVwYm1jeklpQnBibVJsZUQwaU5UZ2lJSFpoYkhWbFBTSXdMakE0CglNek16TXpNek5UZ2lMejQ4Y0dGeVlX
        MGdibUZ0WlQwaWJXbGpjbTkwZFc1cGJtYzBJaUJwYm1SbGVEMGlOVGtpSUhaaAoJYkhWbFBTSXdMakE0TXpNek16TXpOVGdpTHo0OGNHRnlZVzBnYm1GdFpUMGliV2xq
        Y205MGRXNXBibWMxSWlCcGJtUmwKCWVEMGlOakFpSUhaaGJIVmxQU0l3TGpBNE16TXpNek16TlRnaUx6NDhjR0Z5WVcwZ2JtRnRaVDBpYldsamNtOTBkVzVwCglibWMy
        SWlCcGJtUmxlRDBpTmpFaUlIWmhiSFZsUFNJd0xqQTRNek16TXpNek5UZ2lMejQ4Y0dGeVlXMGdibUZ0WlQwaQoJYldsamNtOTBkVzVwYm1jM0lpQnBibVJsZUQwaU5q
        SWlJSFpoYkhWbFBTSXdMakE0TXpNek16TXpOVGdpTHo0OGNHRnkKCVlXMGdibUZ0WlQwaWJXbGpjbTkwZFc1cGJtYzRJaUJwYm1SbGVEMGlOak1pSUhaaGJIVmxQU0l3
        TGpBNE16TXpNek16CglOVGdpTHo0OGNHRnlZVzBnYm1GdFpUMGliV2xqY205MGRXNXBibWM1SWlCcGJtUmxlRDBpTmpRaUlIWmhiSFZsUFNJdwoJTGpBNE16TXpNek16
        TlRnaUx6NDhjR0Z5WVcwZ2JtRnRaVDBpYldsamNtOTBkVzVwYm1jeE1DSWdhVzVrWlhnOUlqWTEKCUlpQjJZV3gxWlQwaU1DNHdPRE16TXpNek16VTRJaTgrUEhCaGNt
        RnRJRzVoYldVOUltMXBZM0p2ZEhWdWFXNW5NVEVpCglJR2x1WkdWNFBTSTJOaUlnZG1Gc2RXVTlJakF1TURnek16TXpNek0xT0NJdlBqeHdZWEpoYlNCdVlXMWxQU0pV
        WlcxdwoJWlhKaGJTSWdhVzVrWlhnOUlqWTNJaUIyWVd4MVpUMGlNQzQxSWk4K1BIQmhjbUZ0SUc1aGJXVTlJa0YwZEdGamExTjAKCVlYSjBJaUJwYm1SbGVEMGlOamdp
        SUhaaGJIVmxQU0l3TGpVaUx6NDhjR0Z5WVcwZ2JtRnRaVDBpYlhSRFgwOXVUMlptCglJaUJwYm1SbGVEMGlOamtpSUhaaGJIVmxQU0l3SWk4K1BIQmhjbUZ0SUc1aGJX
        VTlJbTEwUTFOZlQyNVBabVlpSUdsdQoJWkdWNFBTSTNNQ0lnZG1Gc2RXVTlJakFpTHo0OGNHRnlZVzBnYm1GdFpUMGliWFJFWDA5dVQyWm1JaUJwYm1SbGVEMGkKCU56
        RWlJSFpoYkhWbFBTSXdJaTgrUEhCaGNtRnRJRzVoYldVOUltMTBSRk5mVDI1UFptWWlJR2x1WkdWNFBTSTNNaUlnCglkbUZzZFdVOUlqQWlMejQ4Y0dGeVlXMGdibUZ0
        WlQwaWJYUkZYMDl1VDJabUlpQnBibVJsZUQwaU56TWlJSFpoYkhWbAoJUFNJd0lpOCtQSEJoY21GdElHNWhiV1U5SW0xMFJsOVBiazltWmlJZ2FXNWtaWGc5SWpjMElp
        QjJZV3gxWlQwaU1DSXYKCVBqeHdZWEpoYlNCdVlXMWxQU0p0ZEVaVFgwOXVUMlptSWlCcGJtUmxlRDBpTnpVaUlIWmhiSFZsUFNJd0lpOCtQSEJoCgljbUZ0SUc1aGJX
        VTlJbTEwUjE5UGJrOW1aaUlnYVc1a1pYZzlJamMySWlCMllXeDFaVDBpTUNJdlBqeHdZWEpoYlNCdQoJWVcxbFBTSnRkRWRUWDA5dVQyWm1JaUJwYm1SbGVEMGlOemNp
        SUhaaGJIVmxQU0l3SWk4K1BIQmhjbUZ0SUc1aGJXVTkKCUltMTBRVjlQYms5bVppSWdhVzVrWlhnOUlqYzRJaUIyWVd4MVpUMGlNQ0l2UGp4d1lYSmhiU0J1WVcxbFBT
        SnRkRUZUCglYMDl1VDJabUlpQnBibVJsZUQwaU56a2lJSFpoYkhWbFBTSXdJaTgrUEhCaGNtRnRJRzVoYldVOUltMTBRbDlQYms5bQoJWmlJZ2FXNWtaWGc5SWpnd0lp
        QjJZV3gxWlQwaU1DSXZQanh3WVhKaGJTQnVZVzFsUFNKdFlXbHVWbTlzZFcxbFEwTWkKCUlHbHVaR1Y0UFNJNE1TSWdkbUZzZFdVOUlqRWlMejQ4Y0dGeVlXMGdibUZ0
        WlQwaWNHRnVVRzkwUTBNaUlHbHVaR1Y0CglQU0k0TWlJZ2RtRnNkV1U5SWpFaUx6NDhjR0Z5WVcwZ2JtRnRaVDBpY21WMlpYSmlUV2w0UTBNaUlHbHVaR1Y0UFNJNAoJ
        TXlJZ2RtRnNkV1U5SWpFaUx6NDhjR0Z5WVcwZ2JtRnRaVDBpUWtOdGIyUmxJaUJwYm1SbGVEMGlPRFFpSUhaaGJIVmwKCVBTSXdJaTgrUEhCaGNtRnRJRzVoYldVOUlr
        SkRYMEYwYTFObGJuTWlJR2x1WkdWNFBTSTROU0lnZG1Gc2RXVTlJakF1CglNek16TXpNek16UXpJaTgrUEhCaGNtRnRJRzVoYldVOUltWnZjbTFoYm5SRFF5SWdhVzVr
        WlhnOUlqZzJJaUIyWVd4MQoJWlQwaU1DNDFOekF6TVRJMUlpOCtQSEJoY21GdElHNWhiV1U5SW14bFoyRjBiMDF2WkdVaUlHbHVaR1Y0UFNJNE55SWcKCWRtRnNkV1U5
        SWpBaUx6NDhjR0Z5WVcwZ2JtRnRaVDBpYkdWbllYUnZUVzlrWlVORElpQnBibVJsZUQwaU9EZ2lJSFpoCgliSFZsUFNJeElpOCtQSEJoY21GdElHNWhiV1U5SW10elRX
        bGthVU5vSWlCcGJtUmxlRDBpT1RBaUlIWmhiSFZsUFNJeAoJSWk4K1BIQmhjbUZ0SUc1aGJXVTlJbk4xYzNSaGFXNURReUlnYVc1a1pYZzlJamt4SWlCMllXeDFaVDBp
        TVNJdlBqeHcKCVlYSmhiU0J1WVcxbFBTSmtkWEJzYVdOaGRHVlFVR3hoZVdWeUlpQnBibVJsZUQwaU9USWlJSFpoYkhWbFBTSXdJaTgrCglQSEJoY21GdElHNWhiV1U5
        SWsxSlJFbDJZV3hOYVc0d0lpQnBibVJsZUQwaU9UTWlJSFpoYkhWbFBTSXdJaTgrUEhCaAoJY21GdElHNWhiV1U5SWsxSlJFbDJZV3hOYVc0eElpQnBibVJsZUQwaU9U
        UWlJSFpoYkhWbFBTSXdJaTgrUEhCaGNtRnQKCUlHNWhiV1U5SWsxSlJFbDJZV3hOYVc0eUlpQnBibVJsZUQwaU9UVWlJSFpoYkhWbFBTSXdJaTgrUEhCaGNtRnRJRzVo
        CgliV1U5SWsxSlJFbDJZV3hOYVc0eklpQnBibVJsZUQwaU9UWWlJSFpoYkhWbFBTSXdJaTgrUEhCaGNtRnRJRzVoYldVOQoJSWsxSlJFbDJZV3hOYVc0MElpQnBibVJs
        ZUQwaU9UY2lJSFpoYkhWbFBTSXdJaTgrUEhCaGNtRnRJRzVoYldVOUlrMUoKCVJFbDJZV3hOYVc0MUlpQnBibVJsZUQwaU9UZ2lJSFpoYkhWbFBTSXdJaTgrUEhCaGNt
        RnRJRzVoYldVOUlrMUpSRWwyCglZV3hOYVc0MklpQnBibVJsZUQwaU9Ua2lJSFpoYkhWbFBTSXdJaTgrUEhCaGNtRnRJRzVoYldVOUlrMUpSRWwyWVd4TgoJYVc0M0lp
        QnBibVJsZUQwaU1UQXdJaUIyWVd4MVpUMGlNQ0l2UGp4d1lYSmhiU0J1WVcxbFBTSk5TVVJKZG1Gc1RXbHUKCU9DSWdhVzVrWlhnOUlqRXdNU0lnZG1Gc2RXVTlJakFp
        THo0OGNHRnlZVzBnYm1GdFpUMGlUVWxFU1haaGJFMXBiamtpCglJR2x1WkdWNFBTSXhNRElpSUhaaGJIVmxQU0l3SWk4K1BIQmhjbUZ0SUc1aGJXVTlJazFKUkVsMllX
        eE5hVzR4TUNJZwoJYVc1a1pYZzlJakV3TXlJZ2RtRnNkV1U5SWpBaUx6NDhjR0Z5WVcwZ2JtRnRaVDBpVFVsRVNYWmhiRTFwYmpFeElpQnAKCWJtUmxlRDBpTVRBMElp
        QjJZV3gxWlQwaU1DSXZQanh3WVhKaGJTQnVZVzFsUFNKTlNVUkpkbUZzVFdsdU1USWlJR2x1CglaR1Y0UFNJeE1EVWlJSFpoYkhWbFBTSXdJaTgrUEhCaGNtRnRJRzVo
        YldVOUlrMUpSRWwyWVd4TmFXNHhNeUlnYVc1awoJWlhnOUlqRXdOaUlnZG1Gc2RXVTlJakFpTHo0OGNHRnlZVzBnYm1GdFpUMGlUVWxFU1haaGJFMXBiakUwSWlCcGJt
        UmwKCWVEMGlNVEEzSWlCMllXeDFaVDBpTUNJdlBqeHdZWEpoYlNCdVlXMWxQU0pOU1VSSmRtRnNUV0Y0TUNJZ2FXNWtaWGc5CglJakV4TUNJZ2RtRnNkV1U5SWpFaUx6
        NDhjR0Z5WVcwZ2JtRnRaVDBpVFVsRVNYWmhiRTFoZURFaUlHbHVaR1Y0UFNJeAoJTVRFaUlIWmhiSFZsUFNJeElpOCtQSEJoY21GdElHNWhiV1U5SWsxSlJFbDJZV3hO
        WVhneUlpQnBibVJsZUQwaU1URXkKCUlpQjJZV3gxWlQwaU1TSXZQanh3WVhKaGJTQnVZVzFsUFNKTlNVUkpkbUZzVFdGNE15SWdhVzVrWlhnOUlqRXhNeUlnCglkbUZz
        ZFdVOUlqRWlMejQ4Y0dGeVlXMGdibUZ0WlQwaVRVbEVTWFpoYkUxaGVEUWlJR2x1WkdWNFBTSXhNVFFpSUhaaAoJYkhWbFBTSXhJaTgrUEhCaGNtRnRJRzVoYldVOUlr
        MUpSRWwyWVd4TllYZzFJaUJwYm1SbGVEMGlNVEUxSWlCMllXeDEKCVpUMGlNU0l2UGp4d1lYSmhiU0J1WVcxbFBTSk5TVVJKZG1Gc1RXRjROaUlnYVc1a1pYZzlJakV4
        TmlJZ2RtRnNkV1U5CglJakVpTHo0OGNHRnlZVzBnYm1GdFpUMGlUVWxFU1haaGJFMWhlRGNpSUdsdVpHVjRQU0l4TVRjaUlIWmhiSFZsUFNJeAoJSWk4K1BIQmhjbUZ0
        SUc1aGJXVTlJazFKUkVsMllXeE5ZWGc0SWlCcGJtUmxlRDBpTVRFNElpQjJZV3gxWlQwaU1TSXYKCVBqeHdZWEpoYlNCdVlXMWxQU0pOU1VSSmRtRnNUV0Y0T1NJZ2FX
        NWtaWGc5SWpFeE9TSWdkbUZzZFdVOUlqRWlMejQ4CgljR0Z5WVcwZ2JtRnRaVDBpVFVsRVNYWmhiRTFoZURFd0lpQnBibVJsZUQwaU1USXdJaUIyWVd4MVpUMGlNU0l2
        UGp4dwoJWVhKaGJTQnVZVzFsUFNKTlNVUkpkbUZzVFdGNE1URWlJR2x1WkdWNFBTSXhNakVpSUhaaGJIVmxQU0l4SWk4K1BIQmgKCWNtRnRJRzVoYldVOUlrMUpSRWwy
        WVd4TllYZ3hNaUlnYVc1a1pYZzlJakV5TWlJZ2RtRnNkV1U5SWpFaUx6NDhjR0Z5CglZVzBnYm1GdFpUMGlUVWxFU1haaGJFMWhlREV6SWlCcGJtUmxlRDBpTVRJeklp
        QjJZV3gxWlQwaU1TSXZQanh3WVhKaAoJYlNCdVlXMWxQU0pOU1VSSmRtRnNUV0Y0TVRRaUlHbHVaR1Y0UFNJeE1qUWlJSFpoYkhWbFBTSXhJaTgrUEhCaGNtRnQKCUlH
        NWhiV1U5SW5CbGNrNXZkR1ZRYVhSamFFSmxibVJTWVc1blpTSWdhVzVrWlhnOUlqRXlOeUlnZG1Gc2RXVTlJakF1CglOREk0TlRjeE5ETXpJaTgrUEM5d2NtOW5jbUZ0
        UGp3dmMzZGhiVDRBCgk8L2RhdGE+Cgk8a2V5Pm1hbnVmYWN0dXJlcjwva2V5PgoJPGludGVnZXI+MTM5ODIyNzI3NzwvaW50ZWdlcj4KCTxrZXk+bmFtZTwva2V5PgoJ
        PHN0cmluZz5VbnRpdGxlZDwvc3RyaW5nPgoJPGtleT5zdWJ0eXBlPC9rZXk+Cgk8aW50ZWdlcj4xMzk4ODk2NzI0PC9pbnRlZ2VyPgoJPGtleT50eXBlPC9rZXk+Cgk8
        aW50ZWdlcj4xNjM1MDg1Njg1PC9pbnRlZ2VyPgoJPGtleT52ZXJzaW9uPC9rZXk+Cgk8aW50ZWdlcj4wPC9pbnRlZ2VyPgo8L2RpY3Q+CjwvcGxpc3Q+CgEAAAAAAAAA
        AAA=
      >
      FLOATPOS 0 0 0 0
      FXID {1AF33710-15BA-E142-8CD1-F0106331F0C8}
      WAK 0
    >
    <ITEM
      POSITION 17.5
      SNAPOFFS 0
      LENGTH 7.36614583333333
      LOOP 1
      ALLTAKES 0
      FADEIN 1 0 0 1 0 0
      FADEOUT 1 0 0 1 0 0
      MUTE 0
      SEL 0
      IGUID {DD7350E1-BB97-B645-A993-059898B101BE}
      IID 13
      NAME "03-Sax Martin-Recorded MIDI"
      VOLPAN 1 0 1 -1
      SOFFS 0 0
      PLAYRATE 1 1 0 -1 0 0.0025
      CHANMODE 0
      GUID {0229CA8A-D953-2E4B-8B12-FAF2691B4924}
      RECPASS 8
      <SOURCE MIDI
        HASDATA 1 960 QN
        POOLEDEVTS {48F71729-5D30-644E-B7B8-8743C58F89BD}
        E 4288 e0 00 40
        E 2 b0 4a 55
        E 2 90 3c 28
        E 22 b0 4a 53
        E 23 e0 18 40
        E 12 b0 4a 54
        E 24 b0 4a 55
        E 24 b0 4a 56
        E 36 e0 00 40
        E 1 b0 4a 55
        E 22 b0 4a 56
        E 47 b0 4a 57
        E 23 b0 4a 58
        E 23 b0 4a 59
        E 23 b0 4a 5b
        E 24 b0 4a 5c
        E 23 b0 4a 5a
        E 23 b0 4a 5b
        E 81 b0 4a 5a
        E 35 b0 4a 5b
        E 24 b0 4a 5a
        E 23 b0 4a 5b
        E 24 b0 4a 5c
        E 46 b0 4a 5b
        E 24 b0 4a 5c
        E 23 b0 4a 5b
        E 24 b0 4a 5a
        E 18 e0 00 40
        E 2 b0 4a 67
        E 2 90 3d 30
        E 24 b0 4a 65
        E 27 b0 4a 67
        E 27 b0 4a 68
        E 27 b0 4a 6a
        E 26 b0 4a 6e
        E 20 80 3c 1c
        E 6 e0 00 40
        E 2 b0 4a 71
        E 22 b0 4a 72
        E 23 b0 4a 70
        E 24 b0 4a 6f
        E 35 b0 4a 70
        E 173 b0 4a 6f
        E 23 b0 4a 6e
        E 35 b0 4a 6f
        E 23 b0 4a 6d
        E 35 b0 4a 6f
        E 23 b0 4a 70
        E 47 b0 4a 71
        E 36 e0 00 40
        E 1 b0 4a 3d
        E 2 90 3e 26
        E 25 b0 4a 3a
        E 26 b0 4a 3e
        E 26 b0 4a 40
        E 27 b0 4a 3f
        E 26 b0 4a 3e
        E 26 b0 4a 3f
        E 26 b0 4a 41
        E 39 b0 4a 42
        E 25 b0 4a 44
        E 25 b0 4a 45
        E 13 80 3d 25
        E 11 e0 00 40
        E 2 b0 4a 44
        E 21 b0 4a 45
        E 23 b0 4a 47
        E 23 b0 4a 49
        E 24 b0 4a 4b
        E 23 b0 4a 4d
        E 23 b0 4a 4e
        E 23 b0 4a 4f
        E 24 b0 4a 50
        E 23 b0 4a 51
        E 35 b0 4a 52
        E 23 b0 4a 56
        E 24 b0 4a 57
        E 16 e0 00 40
        E 1 b0 4a 2a
        E 2 90 3f 14
        E 25 b0 4a 27
        E 27 b0 4a 2b
        E 26 b0 4a 2c
        E 27 b0 4a 2b
        E 27 b0 4a 30
        E 27 b0 4a 35
        E 10 80 3e 21
        E 5 e0 00 40
        E 10 b0 4a 3a
        E 24 b0 4a 3e
        E 24 b0 4a 3f
        E 35 b0 4a 40
        E 23 b0 4a 42
        E 24 b0 4a 44
        E 23 b0 4a 47
        E 23 b0 4a 4a
        E 24 b0 4a 4c
        E 23 b0 4a 4e
        E 23 b0 4a 50
        E 24 b0 4a 53
        E 23 b0 4a 54
        E 24 b0 4a 56
        E 47 b0 4a 57
        E 23 b0 4a 59
        E 24 b0 4a 5b
        E 24 b0 4a 60
        E 24 b0 4a 62
        E 24 b0 4a 64
        E 8 e0 00 40
        E 2 b0 4a 1d
        E 2 90 41 19
        E 25 b0 4a 1f
        E 27 b0 4a 23
        E 27 b0 4a 26
        E 17 80 3f 21
        E 9 e0 00 40
        E 1 b0 4a 28
        E 22 b0 4a 2b
        E 24 b0 4a 2e
        E 35 b0 4a 2c
        E 58 b0 4a 2d
        E 35 b0 4a 2e
        E 35 b0 4a 2f
        E 47 b0 4a 30
        E 35 b0 4a 31
        E 23 b0 4a 30
        E 24 b0 4a 31
        E 23 b0 4a 32
        E 35 b0 4a 33
        E 35 b0 4a 34
        E 24 b0 4a 35
        E 47 b0 4a 36
        E 25 b0 4a 32
        E 7 e0 00 40
        E 2 b0 4a 42
        E 1 90 42 28
        E 25 b0 4a 48
        E 27 b0 4a 4c
        E 6 80 41 2f
        E 7 e0 00 40
        E 12 b0 4a 51
        E 24 b0 4a 52
        E 24 b0 4a 50
        E 23 b0 4a 51
        E 24 b0 4a 53
        E 34 b0 4a 52
        E 23 b0 4a 51
        E 24 b0 4a 50
        E 46 b0 4a 4f
        E 24 b0 4a 50
        E 35 b0 4a 51
        E 35 b0 4a 50
        E 23 b0 4a 4f
        E 23 b0 4a 50
        E 24 b0 4a 4f
        E 47 b0 4a 50
        E 23 b0 4a 51
        E 24 b0 4a 54
        E 23 b0 4a 55
        E 23 b0 4a 57
        E 24 b0 4a 5a
        E 24 b0 4a 5c
        E 24 b0 4a 5e
        E 12 e0 00 40
        E 2 b0 4a 32
        E 1 90 43 20
        E 25 b0 4a 35
        E 27 b0 4a 37
        E 27 b0 4a 3a
        E 26 b0 4a 39
        E 27 b0 4a 37
        E 40 b0 4a 39
        E 39 b0 4a 3a
        E 27 b0 4a 3b
        E 27 b0 4a 3c
        E 26 b0 4a 3f
        E 27 b0 4a 40
        E 26 b0 4a 42
        E 5 80 42 0a
        E 7 e0 00 40
        E 12 b0 4a 41
        E 25 b0 4a 40
        E 24 b0 4a 42
        E 47 b0 4a 44
        E 24 b0 4a 47
        E 23 b0 4a 49
        E 24 b0 4a 4c
        E 24 b0 4a 53
        E 24 b0 4a 55
        E 24 e0 18 40
        E 50 e0 30 40
        E 3 e0 00 40
        E 2 b0 4a 01
        E 2 90 44 25
        E 11 b0 4a 00
        E 40 b0 4a 01
        E 13 b0 4a 00
        E 10 80 43 12
        E 5 e0 00 40
        E 10 b0 4a 01
        E 12 b0 4a 00
        E 25 b0 4a 04
        E 24 b0 4a 05
        E 23 b0 4a 04
        E 60 b0 4a 05
        E 23 b0 4a 07
        E 36 b0 4a 06
        E 48 b0 4a 07
        E 23 b0 4a 08
        E 24 b0 4a 09
        E 23 b0 4a 0a
        E 24 b0 4a 0c
        E 24 b0 4a 0f
        E 24 b0 4a 12
        E 23 b0 4a 15
        E 24 b0 4a 16
        E 24 b0 4a 17
        E 24 b0 4a 18
        E 24 b0 4a 19
        E 24 b0 4a 1a
        E 24 b0 4a 1c
        E 9 e0 00 40
        E 1 b0 4a 26
        E 2 90 46 1c
        E 25 b0 4a 29
        E 27 b0 4a 2a
        E 27 b0 4a 2b
        E 17 80 44 11
        E 9 e0 00 40
        E 1 b0 4a 2e
        E 36 b0 4a 2d
        E 23 b0 4a 2b
        E 24 b0 4a 28
        E 24 b0 4a 29
        E 24 b0 4a 27
        E 24 b0 4a 26
        E 23 b0 4a 27
        E 24 b0 4a 28
        E 24 b0 4a 29
        E 36 b0 4a 2a
        E 35 b0 4a 2b
        E 36 b0 4a 2c
        E 71 b0 4a 2d
        E 35 b0 4a 2e
        E 24 b0 4a 2f
        E 24 b0 4a 30
        E 25 b0 4a 32
        E 32 e0 00 40
        E 2 b0 4a 12
        E 1 90 47 21
        E 25 b0 4a 16
        E 27 b0 4a 19
        E 27 b0 4a 1a
        E 45 80 46 0c
        E 6 e0 00 40
        E 2 b0 4a 19
        E 22 b0 4a 1a
        E 48 b0 4a 1b
        E 35 b0 4a 1a
        E 70 b0 4a 1b
        E 24 b0 4a 1a
        E 23 b0 4a 1b
        E 24 b0 4a 1a
        E 23 b0 4a 1b
        E 24 b0 4a 1c
        E 23 b0 4a 1b
        E 23 b0 4a 1c
        E 24 b0 4a 1b
        E 46 b0 4a 1c
        E 24 b0 4a 1b
        E 23 b0 4a 1c
        E 35 b0 4a 1d
        E 59 b0 4a 1c
        E 24 b0 4a 1e
        E 12 e0 00 40
        E 2 b0 4a 1a
        E 1 90 48 1a
        E 25 b0 4a 21
        E 27 b0 4a 23
        E 41 80 47 18
        E 11 e0 00 40
        E 1 b0 4a 24
        E 23 b0 4a 25
        E 25 b0 4a 26
        E 24 b0 4a 25
        E 47 b0 4a 27
        E 24 b0 4a 28
        E 24 b0 4a 29
        E 23 b0 4a 2c
        E 24 b0 4a 2f
        E 24 b0 4a 31
        E 24 b0 4a 32
        E 24 b0 4a 33
        E 23 b0 4a 34
        E 24 b0 4a 36
        E 35 b0 4a 35
        E 25 b0 4a 36
        E 23 b0 4a 37
        E 24 b0 4a 38
        E 24 b0 4a 39
        E 23 b0 4a 38
        E 24 b0 4a 37
        E 25 e0 18 40
        E 1 b0 4a 36
        E 26 e0 00 40
        E 1 b0 4a 00
        E 2 90 49 1a
        E 44 80 48 19
        E 6 e0 00 40
        E 1055 80 49 5b
        E 1422 b0 7b 00
        GUID {1C462DCF-0E0A-8942-AF3C-8655EAA13482}
        IGNTEMPO 0 120 4 4
        SRCCOLOR 174
      >
    >
  >
  <TRACK {C400C46F-3A1B-FA48-B88C-16A0A1A3E8D0}
    NAME ""
    PEAKCOL 16576
    BEAT -1
    AUTOMODE 0
    VOLPAN 1 0 -1 -1 1
    MUTESOLO 0 0 0
    IPHASE 0
    ISBUS 0 0
    BUSCOMP 0 0
    SHOWINMIX 1 0.6667 0.5 1 0.5 0 0 0
    FREEMODE 0
    SEL 0
    REC 1 0 0 0 0 0 0
    VU 2
    TRACKHEIGHT 0 0
    INQ 0 0 0 0.5 100 0 0 100
    NCHAN 2
    FX 1
    TRACKID {C400C46F-3A1B-FA48-B88C-16A0A1A3E8D0}
    PERF 0
    MIDIOUT -1
    MAINSEND 1 0
    <FXCHAIN
      WNDRECT 79 458 724 387
      SHOW 0
      LASTSEL 0
      DOCKED 0
    >
    <ITEM
      POSITION 17.5
      SNAPOFFS 0
      LENGTH 7.36448979591837
      LOOP 1
      ALLTAKES 0
      FADEIN 1 0.01 0 1 0 0
      FADEOUT 1 0.01 0 1 0 0
      MUTE 0
      SEL 0
      IGUID {0EFF1737-B3B6-A248-8051-5B4FE547AB50}
      IID 14
      NAME 04-180410_1901.wav
      VOLPAN 1 0 1 -1
      SOFFS 0
      PLAYRATE 1 1 0 -1 0 0.0025
      CHANMODE 0
      GUID {3552FB34-DA9C-8A49-895C-CDABC101E2B5}
      RECPASS 8
      <SOURCE WAVE
        FILE "04-180410_1901.wav"
      >
    >
  >
  <EXTENSIONS
  >
>
